<svg id="bb51a684-49ed-4f76-8402-b09233090f67" data-name="Layer 1" xmlns="http://www.w3.org/2000/svg" xmlns:xlink="http://www.w3.org/1999/xlink" width="833.01855" height="656.68311" viewBox="0 0 833.01855 656.68311">
  <defs>
    <style>
      .a108e56a-e8a2-4e33-bcff-9357ed8ef9e5, .a85ab00b-f887-46ec-a535-cac1b53ae2b5, .aff2916e-3ac1-4719-8734-a21c44b8e0fa, .b02f9ae3-a90a-4110-887d-2082271298fa, .b0fffccd-418c-4ab8-9b6c-ba3f6cbd8a29, .b2ab15ea-3658-4960-8bf6-3af0380d317b, .b479bac0-71d6-4557-9eb4-76abbc79e1c0, .b52c6928-575b-4308-9dc2-f15f92320976, .b593cec3-63f5-453e-94ab-ea3adb52b0f5, .b60935b4-f150-41ed-bdfa-d808b4b64cb0, .b80f7820-2675-44f5-ab49-e9f3b2753b2c, .b8e72856-e951-494c-94c1-2d092cbaa1eb, .bebe5d4a-b4e0-46b5-bef1-ce6d1415e270, .e7b1c2a6-946b-43d5-ab9d-0cf772900228, .faab006d-ecf9-488c-a774-8928c1fac5a0 {
        fill-rule: evenodd;
      }

      .a85ab00b-f887-46ec-a535-cac1b53ae2b5 {
        fill: url(#a7dcb7a7-94cd-4e2c-8dc2-aea4f71dc9b8);
      }

      .b52c6928-575b-4308-9dc2-f15f92320976 {
        fill: url(#f424f0b2-5d35-4e72-961a-c0d261dd90c0);
      }

      .b479bac0-71d6-4557-9eb4-76abbc79e1c0 {
        fill: url(#eeaeffc9-1bbe-4290-b6ed-7196ca7a4416);
      }

      .b60935b4-f150-41ed-bdfa-d808b4b64cb0 {
        fill: url(#a9e1db42-e88e-46aa-a29e-5d81b5fc25e2);
      }

      .b8e72856-e951-494c-94c1-2d092cbaa1eb {
        fill: #022311;
      }

      .a108e56a-e8a2-4e33-bcff-9357ed8ef9e5 {
        fill: url(#f621a854-ccbb-44dc-8b30-2b8673edfb45);
      }

      .faab006d-ecf9-488c-a774-8928c1fac5a0 {
        fill: url(#ac2a2c3c-685a-4cd5-8450-7c930b6f9f96);
      }

      .b2ab15ea-3658-4960-8bf6-3af0380d317b {
        fill: #396;
      }

      .b0fffccd-418c-4ab8-9b6c-ba3f6cbd8a29 {
        fill: #fff;
      }

      .bebe5d4a-b4e0-46b5-bef1-ce6d1415e270 {
        fill: red;
      }

      .b02f9ae3-a90a-4110-887d-2082271298fa, .e2511070-1ed4-4bf8-83f3-fe9f9dbf417e {
        fill: #ffc;
      }

      .aff2916e-3ac1-4719-8734-a21c44b8e0fa {
        fill: url(#afbafc9f-133b-4376-8085-a275d580d828);
      }

      .b593cec3-63f5-453e-94ab-ea3adb52b0f5 {
        fill: #f4ac0c;
      }

      .b80f7820-2675-44f5-ab49-e9f3b2753b2c {
        fill: url(#ecf983cf-eb3f-46d1-a711-ca6ee4dc54d5);
      }

      .e7b1c2a6-946b-43d5-ab9d-0cf772900228 {
        fill: url(#bca77dd0-6013-4c51-a20d-e788eb21e2a2);
      }

      .b9237186-6404-4f42-823d-415d9ad49f24 {
        fill: #004817;
      }

      .a6dc273b-f2ad-4142-9c1e-b5a8a4f59086 {
        fill: #a31113;
      }

      .b92447d7-249a-487b-a182-7e90d06c5401 {
        fill: #f7f4f0;
      }

      .aaadb074-a375-4f95-a698-06fce2a844bf {
        fill: #b5855a;
      }

      .ab837153-2fee-48ed-8f70-5317aeee7331 {
        fill: #e31b27;
      }

      .a32c8c7e-e074-4447-bb10-761e7c107bc9 {
        fill: #00722a;
      }
    </style>
    <radialGradient id="a7dcb7a7-94cd-4e2c-8dc2-aea4f71dc9b8" cx="263.80353" cy="546.90121" r="159.12791" gradientTransform="matrix(1.2852, 0, 0, -0.158, -143.24569, 667.07536)" gradientUnits="userSpaceOnUse">
      <stop offset="0"/>
      <stop offset="0.00297" stop-color="#020202"/>
      <stop offset="0.70492" stop-color="#fff" stop-opacity="0"/>
    </radialGradient>
    <radialGradient id="f424f0b2-5d35-4e72-961a-c0d261dd90c0" cx="339.7607" cy="1008.41018" r="159.12595" gradientTransform="matrix(1.7807, 0, 0, -0.1848, -407.01801, 766.43775)" gradientUnits="userSpaceOnUse">
      <stop offset="0" stop-color="#003f05"/>
      <stop offset="0.00297" stop-color="#024107"/>
      <stop offset="0.15086" stop-color="#17511b" stop-opacity="0.91841"/>
      <stop offset="0.33417" stop-color="#527d55" stop-opacity="0.68389"/>
      <stop offset="0.53533" stop-color="#b4c6b5" stop-opacity="0.29838"/>
      <stop offset="0.66036" stop-color="#fff" stop-opacity="0"/>
    </radialGradient>
    <radialGradient id="eeaeffc9-1bbe-4290-b6ed-7196ca7a4416" cx="360.47286" cy="1592.25852" r="159.13734" gradientTransform="matrix(1.7807, 0, 0, -0.4105, -407.01801, 1240.76393)" gradientUnits="userSpaceOnUse">
      <stop offset="0" stop-color="#006a1b"/>
      <stop offset="0.00297" stop-color="#026b1d"/>
      <stop offset="0.11318" stop-color="#0f7329" stop-opacity="0.94763"/>
      <stop offset="0.25467" stop-color="#35894b" stop-opacity="0.79817"/>
      <stop offset="0.41324" stop-color="#73ad82" stop-opacity="0.55169"/>
      <stop offset="0.58304" stop-color="#cae0cf" stop-opacity="0.21069"/>
      <stop offset="0.67345" stop-color="#fff" stop-opacity="0"/>
    </radialGradient>
    <linearGradient id="a9e1db42-e88e-46aa-a29e-5d81b5fc25e2" x1="499.28254" y1="478.20427" x2="501.2825" y2="286.20507" gradientTransform="matrix(1, 0, 0, -1, 0, 656)" gradientUnits="userSpaceOnUse">
      <stop offset="0" stop-color="#006a1b"/>
      <stop offset="0.09238" stop-color="#005b16"/>
      <stop offset="0.26605" stop-color="#00450f"/>
      <stop offset="0.45736" stop-color="#00360a"/>
      <stop offset="0.67794" stop-color="#002d07"/>
      <stop offset="0.99462" stop-color="#002a06"/>
    </linearGradient>
    <linearGradient id="f621a854-ccbb-44dc-8b30-2b8673edfb45" x1="212.05737" y1="90.74248" x2="446.04576" y2="479.22252" gradientTransform="matrix(1, 0, 0, -1, 0, 656)" gradientUnits="userSpaceOnUse">
      <stop offset="0" stop-color="#a96015"/>
      <stop offset="0.03135" stop-color="#ab6014"/>
      <stop offset="0.37747" stop-color="#c25f09"/>
      <stop offset="0.70702" stop-color="#cf5e02"/>
      <stop offset="1" stop-color="#d45e00"/>
    </linearGradient>
    <linearGradient id="ac2a2c3c-685a-4cd5-8450-7c930b6f9f96" x1="63.227" y1="306.07432" x2="596.07031" y2="306.07432" gradientTransform="matrix(1, 0, 0, -1, 0, 656)" gradientUnits="userSpaceOnUse">
      <stop offset="0" stop-color="#f96"/>
      <stop offset="0.11332" stop-color="#ff955b"/>
      <stop offset="0.34423" stop-color="#ff8f4c"/>
      <stop offset="0.61123" stop-color="#ff8c43"/>
      <stop offset="0.99462" stop-color="#ff8b40"/>
    </linearGradient>
    <linearGradient id="afbafc9f-133b-4376-8085-a275d580d828" x1="71.72412" y1="147.81602" x2="833.01855" y2="147.81602" xlink:href="#a9e1db42-e88e-46aa-a29e-5d81b5fc25e2"/>
    <linearGradient id="ecf983cf-eb3f-46d1-a711-ca6ee4dc54d5" x1="291.40598" y1="525.00345" x2="347.05337" y2="525.00345" gradientTransform="matrix(1, 0, 0, -1, 0, 656)" gradientUnits="userSpaceOnUse">
      <stop offset="0" stop-color="#ffa415"/>
      <stop offset="0.25926" stop-color="#ed870c"/>
      <stop offset="0.52382" stop-color="#df7005"/>
      <stop offset="0.77588" stop-color="#d76301"/>
      <stop offset="1" stop-color="#d45e00"/>
    </linearGradient>
    <linearGradient id="bca77dd0-6013-4c51-a20d-e788eb21e2a2" x1="239.06586" y1="516.9851" x2="286.64267" y2="516.9851" xlink:href="#ecf983cf-eb3f-46d1-a711-ca6ee4dc54d5"/>
  </defs>
  <title>favola-header-logo</title>
  <g id="a880c94b-1be7-4544-b82e-0e11cfa9de91" data-name="a5dbb71e-c2c2-4397-a4fe-378f9534806d">
    <path class="a85ab00b-f887-46ec-a535-cac1b53ae2b5" d="M461.9238,582.28857c0,13.88282-91.56391,25.13862-204.51511,25.13862-112.94971,0-204.5142-11.2558-204.5142-25.13862,0-13.88867,91.56449-25.14459,204.5142-25.14459C370.35989,557.144,461.9238,568.3999,461.9238,582.28857Z"/>
    <path class="b52c6928-575b-4308-9dc2-f15f92320976" d="M566.72656,581.98c0,16.23822-126.86529,29.4043-283.36477,29.4043C126.86719,611.38428,0,598.2182,0,581.98c0-16.24219,126.86719-29.40631,283.36179-29.40631C439.8613,552.57373,566.72656,565.73779,566.72656,581.98Z"/>
    <path class="b479bac0-71d6-4557-9eb4-76abbc79e1c0" d="M603.60938,591.35889c0,36.07611-126.8653,65.32422-283.36478,65.32422-156.4946,0-283.36279-29.24811-283.36279-65.32422,0-36.08789,126.86819-65.336,283.36279-65.336C476.74408,526.02289,603.60938,555.271,603.60938,591.35889Z"/>
    <path class="b60935b4-f150-41ed-bdfa-d808b4b64cb0" d="M341.7529,197.1689C517.80267,175.9389,658.457,228.34669,658.457,316.7583c0,31.4917-17.85541,63.3999-48.79388,92.7002-11.1651-1.08789-22.1319-2.0391-32.79981-2.85941,26.89844-27.50491,42.25879-57.062,42.25879-86.26419C619.12207,238.6162,498.96,187.6553,341.7529,197.1689Z"/>
    <path class="b8e72856-e951-494c-94c1-2d092cbaa1eb" d="M88.2632,452.96729s-6.4453,32.63861,25.74069,38.623c6.17481,1.15039,18.63091-1.5791,35.834-6.582C123.48,477.76709,102.2637,466.8374,88.2632,452.96729Z"/>
    <path class="a108e56a-e8a2-4e33-bcff-9357ed8ef9e5" d="M329.64789,237.48289c147.1431-20.5547,266.42242,22.12551,266.42242,95.3315,0,24.4859-13.35742,49.28131-36.62109,72.21051-43.64258-2.002-87.32028-.75879-131.23239,5.8125-69.62061,10.414-137.5195,29.8418-204.5093,51.07031-24.18989,7.665-48.4116,15.8086-72.793,22.81351-2.851.8183-8.14641,2.3447-13.91251,3.7822-45.70369-17.4111-73.775-45.7363-73.775-81.25C63.227,334.04541,182.5098,258.039,329.64789,237.48289Z"/>
    <path class="faab006d-ecf9-488c-a774-8928c1fac5a0" d="M329.64789,223.1787c147.1431-20.55671,266.42242,22.126,266.42242,95.33009,0,29.46429-19.3291,59.3735-52.00488,85.94769-38.52829-1.0683-77.09668.58109-115.84857,6.38089-69.62061,10.414-137.5195,29.8418-204.50929,51.07031-20.936,6.63669-41.895,13.626-62.9609,19.92679C101.2124,465.84421,63.227,434.25629,63.227,392.94379,63.227,319.74121,182.5098,243.7319,329.64789,223.1787Z"/>
    <path class="b2ab15ea-3658-4960-8bf6-3af0380d317b" d="M133.6274,306.2915l189.0782,47.7143L265.04349,245.6953C212.03659,259.9599,166.10548,281.4726,133.6274,306.2915Z"/>
    <path class="b0fffccd-418c-4ab8-9b6c-ba3f6cbd8a29" d="M276.65228,242.71629l52.99561,107.88179,58.29941-122.8457a510.373,510.373,0,0,0-58.29941,4.8316A536.49108,536.49108,0,0,0,276.65228,242.71629Z"/>
    <path class="bebe5d4a-b4e0-46b5-bef1-ce6d1415e270" d="M398.99509,227.6201l-61.72751,126.102,226.53509-73.1713C538.35156,247.583,476.58688,227.6274,398.99509,227.6201Z"/>
    <path class="b02f9ae3-a90a-4110-887d-2082271298fa" d="M573.3418,297.9101,338.47458,362.50879l54.45309,44.91058c43.9375-8.28219,89.13279-13.44729,132.68457-12.4805,31.85743-24.32861,50.79389-51.8349,50.79389-78.81338A55.00451,55.00451,0,0,0,573.3418,297.9101Z"/>
    <path class="b02f9ae3-a90a-4110-887d-2082271298fa" d="M376.1553,410.73779l-44.27539-41.146-7.84039,53.2807C341.01218,418.5141,358.4512,414.40869,376.1553,410.73779Z"/>
    <path class="b02f9ae3-a90a-4110-887d-2082271298fa" d="M310.64008,426.394l12.271-57.44681L172.07471,463.43109q4.48528,1.15141,9.148,2.18561C216.54739,454.4057,261.355,439.58249,310.64008,426.394Z"/>
    <path class="b02f9ae3-a90a-4110-887d-2082271298fa" d="M148.72308,456.1196,319.3887,361.06439l-199.729-43.13861c-23.3111,21.27631-36.7652,44.39841-36.7652,67.1445C82.8945,416.05911,107.8726,440.77,148.72308,456.1196Z"/>
    <path class="aff2916e-3ac1-4719-8734-a21c44b8e0fa" d="M82.1245,455.6264s-7.6963,38.98542,30.74609,46.13581c35.98,6.69241,250.3564-96.8682,431.01118-87.5947l-.01458-.00879.1123.00879c87.3125,4.5058,207.4502,19.6738,289.03906,45.57709l-87.2022,57.624-.8584,85.42S574.51068,501.87939,440.4082,516.185c-92.34329,9.84869-274.73929,109.88678-344.97168,41.45611C78.0029,540.65479,59.6758,485.6723,82.1245,455.6264Z"/>
    <polygon class="b593cec3-63f5-453e-94ab-ea3adb52b0f5" points="147.679 505.195 160.145 522.778 180.954 525.032 168.95 540.934 174.861 561.247 154.975 553.494 137.817 563.792 137.532 543.097 121.019 529.154 140.727 524.112 147.679 505.195"/>
    <polygon class="b593cec3-63f5-453e-94ab-ea3adb52b0f5" points="705.91 466.984 710.915 491.097 729.245 501.156 712.338 514.526 710.31 539.297 694.852 523.45 675.265 528.702 682.619 505.536 672.549 484.006 692.547 485.543 705.91 466.984"/>
    <path class="b80f7820-2675-44f5-ab49-e9f3b2753b2c" d="M315.30609,238.6709c-28.89789-69.7388,16.44879-91.34619,27.92581-133.4619,6.01032-22.0581,5.1167-47.5987-4.0039-69.6011C332.07318,18.3388,321.061,6.1694,308.6138,0a78.79838,78.79838,0,0,1,14.53809,23.3227c28.89788,69.7359-16.4488,91.3452-27.92292,133.46191-6.01168,22.05769-5.11911,47.59579,4.001,69.6011,7.15479,17.2666,18.167,29.43649,30.6142,35.60739A78.76484,78.76484,0,0,1,315.30609,238.6709Z"/>
    <path class="e7b1c2a6-946b-43d5-ab9d-0cf772900228" d="M247.6274,199.5986c-7.98731-43.0234,20.32618-49.8183,31.90379-72.3164a63.79743,63.79743,0,0,0,6.1109-39.9477c-1.9776-10.65429-6.75638-18.8814-13.0723-23.8765a45.51475,45.51475,0,0,1,5.4336,14.97311c7.99218,43.0235-20.32419,49.8155-31.9018,72.31639a63.80821,63.80821,0,0,0-6.1114,39.9478c1.97951,10.65429,6.7588,18.8813,13.07229,23.87649A45.64343,45.64343,0,0,1,247.6274,199.5986Z"/>
    <path class="e2511070-1ed4-4bf8-83f3-fe9f9dbf417e" d="M343.8252,513.25244l-24.85547,7.835-.20264,15.46387-16.9624,5.34668,3.2207-80.28125,16.375-5.16113L370.1582,520.353l-17.29834,5.45215Zm-9.60987-13.5039-14.83056-20.69141-.28418,25.45605Z"/>
    <path class="e2511070-1ed4-4bf8-83f3-fe9f9dbf417e" d="M247.22119,497.69089l4.08692,16.1221,26.19531-6.6416,4.06152,16.01757-26.19531,6.64161,6.37012,25.125-16.78516,4.25586-18.58008-73.28125,46.542-11.79981,4.06055,16.0166Z"/>
    <path class="e2511070-1ed4-4bf8-83f3-fe9f9dbf417e" d="M418.21582,428.18307l-2.416,80.02833L399.457,513.36279l-47.78564-64.2041,17.93554-5.65332,30.72852,41.9502,1.4541-52.09473Z"/>
    <path class="e2511070-1ed4-4bf8-83f3-fe9f9dbf417e" d="M454.68555,501.18893a34.79011,34.79011,0,0,1-14.01172-12.26953,48.09507,48.09507,0,0,1-5.4209-40.02734,34.787,34.787,0,0,1,10.24316-15.55566,32.929,32.929,0,0,1,34.8125-4.71485,34.79347,34.79347,0,0,1,14.01172,12.27051,48.08555,48.08555,0,0,1,5.4209,40.02734A34.77071,34.77071,0,0,1,489.498,496.47409a32.92813,32.92813,0,0,1-34.8125,4.71484Zm23.72461-18.68945a18.26089,18.26089,0,0,0,4.91113-8.34863,30.04381,30.04381,0,0,0-3.0293-22.36817,18.27238,18.27238,0,0,0-6.95508-6.74121A14.58158,14.58158,0,0,0,456.585,447.31a18.2423,18.2423,0,0,0-4.91113,8.34863,30.02813,30.02813,0,0,0,3.0293,22.36816,18.23051,18.23051,0,0,0,6.95507,6.74122,14.57734,14.57734,0,0,0,16.752-2.26856Z"/>
    <path class="e2511070-1ed4-4bf8-83f3-fe9f9dbf417e" d="M521.04688,426.09323l17.37695,1.39063-4.67774,58.457,29.31348,2.3457L561.707,505.188l-46.69141-3.73633Z"/>
    <path class="e2511070-1ed4-4bf8-83f3-fe9f9dbf417e" d="M623.33594,501.92136l-25.35352-6.03321-8.11133,13.168L572.57031,504.939l43.9668-67.248,16.70312,3.97461,9.05176,79.86426-17.64453-4.19825Zm-1.31739-16.52246-2.10839-25.36915L606.60156,481.73Z"/>
    <path class="b9237186-6404-4f42-823d-415d9ad49f24" d="M340.94043,555.82861h16.8374a21.36216,21.36216,0,0,1,10.35742,2.38184,16.25513,16.25513,0,0,1,6.7295,6.84277,22.19906,22.19906,0,0,1,2.354,10.499,31.80679,31.80679,0,0,1-3.07422,14.35546,22.74369,22.74369,0,0,1-8.55713,9.52637,23.59526,23.59526,0,0,1-12.57275,3.35449H333.186ZM353.34668,592.189a11.674,11.674,0,0,0,6.896-2.04589,12.64654,12.64654,0,0,0,4.40332-5.63575,21.01472,21.01472,0,0,0,1.49511-8.15039q0-4.7622-2.437-7.3457-2.4375-2.58252-7.14453-2.583h-6.42529L345.9248,592.189Z"/>
    <path class="b9237186-6404-4f42-823d-415d9ad49f24" d="M395.77246,566.09326l-1.27344,7.916h17.2251l-1.606,9.92871H392.8374l-1.38476,8.58691h20.32715l-1.77247,10.26367H378.93506l7.75439-46.96H417.041l-1.7168,10.26465Z"/>
    <path class="b9237186-6404-4f42-823d-415d9ad49f24" d="M423.90918,555.82861H434.876l-5.98242,36.42774h18.5l-1.77247,10.53222H416.15433Z"/>
    <path class="b9237186-6404-4f42-823d-415d9ad49f24" d="M457.69434,555.82861h10.96679l-7.75488,46.96h-10.9668Z"/>
    <path class="b9237186-6404-4f42-823d-415d9ad49f24" d="M515.62891,555.82861l-24.31543,46.96H480.5127l-8.80567-46.96H482.9502l5.53906,30.52442,15.84082-30.52442Z"/>
    <path class="b9237186-6404-4f42-823d-415d9ad49f24" d="M527.03809,566.09326l-1.27344,7.916h17.22558l-1.60644,9.92871H524.10254l-1.38477,8.58691h20.32715l-1.77246,10.26367H510.2002l7.75488-46.96h30.35156l-1.7168,10.26465Z"/>
    <path class="b9237186-6404-4f42-823d-415d9ad49f24" d="M584.5293,581.89111a16.51576,16.51576,0,0,1-7.91992,6.80957l6.59082,14.08789H571.73535l-5.76074-12.4776h-5.53809l-2.0498,12.47754h-10.9668l7.75488-46.96h16.56055q7.42091,0,11.52051,3.958,4.09863,3.95947,4.09863,11.00195A21.01072,21.01072,0,0,1,584.5293,581.89111Zm-9.8584-14.15429a6.4802,6.4802,0,0,0-4.48633-1.44239h-5.76074l-2.32617,13.752h6.53613a7.45747,7.45747,0,0,0,5.64941-2.0791,8.1911,8.1911,0,0,0,1.99414-5.9043A5.52249,5.52249,0,0,0,574.6709,567.73682Z"/>
    <path class="b9237186-6404-4f42-823d-415d9ad49f24" d="M611.33691,586.15186,608.623,602.78857H597.65625l2.76953-16.97265-9.8584-29.98731h11.02149l6.09277,18.7168,12.40625-18.7168H631.2207Z"/>
    <path class="a6dc273b-f2ad-4142-9c1e-b5a8a4f59086" d="M451.92227,381.21606c7.42218.58979,12.585,7.35212,12.61365,15.76264l-31.24875,3.7464a21.27148,21.27148,0,0,1,.25653-2.5679C435.21405,388.14316,443.45865,380.544,451.92227,381.21606Z"/>
    <path class="b92447d7-249a-487b-a182-7e90d06c5401" d="M445.278,391.97357a2.1949,2.1949,0,0,1-2.51554,1.11356,1.50359,1.50359,0,0,1-.67389-2.2551,2.1967,2.1967,0,0,1,2.5163-1.1145,1.50641,1.50641,0,0,1,.67313,2.256Z"/>
    <path class="b92447d7-249a-487b-a182-7e90d06c5401" d="M448.65228,389.20587a.79783.79783,0,0,1,1.24085-.33716,1.32,1.32,0,0,1,.6665,1.43528.79838.79838,0,0,1-1.24106.33712A1.32119,1.32119,0,0,1,448.65228,389.20587Z"/>
    <path class="b92447d7-249a-487b-a182-7e90d06c5401" d="M453.97745,393.06924a1.28012,1.28012,0,0,1,1.4667-.65078.87768.87768,0,0,1,.39365,1.31622,1.28223,1.28223,0,0,1-1.46744.6517.879.879,0,0,1-.39291-1.31714Z"/>
    <path class="b92447d7-249a-487b-a182-7e90d06c5401" d="M454.77371,388.11612a.75944.75944,0,0,1,.86963-.38687.521.521,0,0,1,.23389.78155.75994.75994,0,0,1-.87067.385.51963.51963,0,0,1-.23285-.77969Z"/>
    <path class="b92447d7-249a-487b-a182-7e90d06c5401" d="M449.78278,393.33389a.7202.7202,0,0,1,.89648-.25979.55328.55328,0,0,1,.09586.8316.72274.72274,0,0,1-.89808.25867.55279.55279,0,0,1-.09426-.83048Z"/>
    <path class="b92447d7-249a-487b-a182-7e90d06c5401" d="M446.64862,387.479a.72051.72051,0,0,1-.89645.26011.553.553,0,0,1-.09351-.83167.7211.7211,0,0,1,.89649-.2598.55269.55269,0,0,1,.09347.83136Z"/>
    <path class="aaadb074-a375-4f95-a698-06fce2a844bf" d="M486.879,327.56406c5.81772.73684,10.01971,8.837,10.01971,8.837s4.58643,7.9238,1.74042,12.60633c-2.95343,4.86459-7.59482,6.42718-10.98749,4.10617a.59937.59937,0,0,1,.22278-1.1276,2.16808,2.16808,0,0,0,2.268-1.80093c.45736-2.60526-.59113-5.57306-4.02018-4.68445-3.433.88986-10.58838,6.76688-10.58838,6.76688s-3.08929,3.69332-6.78723-3.04749c-3.69461-6.73843,1.40168-6.77563,1.40168-6.77563s9.45425-1.68552,12.29254-3.65207c2.83841-1.96842.86435-4.51166-1.69852-5.74042a2.34281,2.34281,0,0,0-2.94.56787.67612.67612,0,0,1-1.12274-.51343C476.67981,329.2395,480.83542,326.79642,486.879,327.56406Z"/>
    <path class="ab837153-2fee-48ed-8f70-5317aeee7331" d="M564.642,333.99744l-29.3548-18.40018a.70826.70826,0,0,1-.15515-1.16223c6.99768-6.41055,18.99872-7.4737,27.289-2.27793s9.83057,14.74643,3.67426,21.68238A1.19644,1.19644,0,0,1,564.642,333.99744Z"/>
    <path class="b92447d7-249a-487b-a182-7e90d06c5401" d="M563.91138,328.54178a1.93933,1.93933,0,0,1-1.65894-.51907,47.82628,47.82628,0,0,0-19.11108-11.98966,1.41749,1.41749,0,0,1-1.02515-1.16537,1.321,1.321,0,0,1,.833-1.25812,18.53443,18.53443,0,0,1,17.2644.78842c5.05817,3.16794,6.85639,8.466,5.03278,13.20123A1.63463,1.63463,0,0,1,563.91138,328.54178Z"/>
    <path class="b92447d7-249a-487b-a182-7e90d06c5401" d="M543.58508,317.91217q8.0778,4.97026,16.03015,10.04565A42.74573,42.74573,0,0,0,543.58508,317.91217Z"/>
    <path class="ab837153-2fee-48ed-8f70-5317aeee7331" d="M560.04144,320.42526a13.08127,13.08127,0,0,1-2.8313.77262l.004-.00318a9.209,9.209,0,0,1,1.79627-1.89776l.0448-.03388a1.068,1.068,0,0,1,.72827-.21649,1.00565,1.00565,0,0,1,.67828.30606.5783.5783,0,0,1,.14166.57193.74327.74327,0,0,1-.45562.45737Z"/>
    <path class="ab837153-2fee-48ed-8f70-5317aeee7331" d="M561.98889,322.83926a13.409,13.409,0,0,1-2.965.31525l.002-.00317a10.61722,10.61722,0,0,1,2.22845-1.57651l.05237-.02753a1.129,1.129,0,0,1,.76758-.09906.8952.8952,0,0,1,.59094.40482.56838.56838,0,0,1-.002.58426.84192.84192,0,0,1-.56.37729Z"/>
    <path class="ab837153-2fee-48ed-8f70-5317aeee7331" d="M563.28748,325.05545a12.04525,12.04525,0,0,1-2.56025.05255l.002-.00317a9.724,9.724,0,0,1,2.09314-1.16223l.04645-.02152a1.008,1.008,0,0,1,.66674-.025.70321.70321,0,0,1,.44928.38043.481.481,0,0,1-.07538.49121.79534.79534,0,0,1-.52307.27536Z"/>
    <path class="ab837153-2fee-48ed-8f70-5317aeee7331" d="M552.912,315.95584a7.07133,7.07133,0,0,0-.27307,2.37665l.00354-.00284a9.49048,9.49048,0,0,0,1.88751-1.83923l.031-.04337a.61405.61405,0,0,0,.09131-.615.83278.83278,0,0,0-.531-.4545,1.08447,1.08447,0,0,0-.73261.025.74727.74727,0,0,0-.44964.46051Z"/>
    <path class="ab837153-2fee-48ed-8f70-5317aeee7331" d="M549.50922,315.01929a7.06082,7.06082,0,0,0,.31585,2.37063l.00354-.00317a8.30229,8.30229,0,0,0,1.3974-2.09876l.02149-.0462a.61039.61039,0,0,0-.06391-.61813.93983.93983,0,0,0-.63183-.36176,1.04187,1.04187,0,0,0-.71118.139.659.659,0,0,0-.3274.52255Z"/>
    <path class="ab837153-2fee-48ed-8f70-5317aeee7331" d="M546.50366,314.53693a6.25908,6.25908,0,0,0,.54254,1.99368l.002-.00317a6.74287,6.74287,0,0,0,.92431-1.89463l.01154-.04019a.54146.54146,0,0,0-.12579-.52225.83517.83517,0,0,0-.57-.25985.8472.8472,0,0,0-.57941.17312.54255.54255,0,0,0-.21313.47287Z"/>
    <path class="ab837153-2fee-48ed-8f70-5317aeee7331" d="M557.52405,318.25211a11.46368,11.46368,0,0,1-2.457,1.36319l.002-.006a7.811,7.811,0,0,1,1.0755-2.21618l.029-.04337a.948.948,0,0,1,.62787-.36777,1.13372,1.13372,0,0,1,.75763.1453.66162.66162,0,0,1,.33338.51907.64144.64144,0,0,1-.281.54093Z"/>
    <path class="aaadb074-a375-4f95-a698-06fce2a844bf" d="M396.10565,399.56464c-4.88885-3.2385-5.06647-12.36194-5.06647-12.36194s-.60037-9.13571,4.02588-12.0723c4.80326-3.05218,9.6565-2.39633,11.66938,1.18775a.59938.59938,0,0,1-.69938.91214,2.168,2.168,0,0,0-2.83114.60949c-1.56445,2.13285-1.93958,5.258,1.52817,5.98084,3.47189.72351,12.4906-1.37436,12.4906-1.37436s4.406-1.942,4.7341,5.73953c.32617,7.67789-4.259,5.453-4.259,5.453s-9.22229-2.67834-12.63809-2.17309c-3.41678.50686-2.77408,3.66153-1.021,5.89871a2.34283,2.34283,0,0,0,2.88726.7937.67614.67614,0,0,1,.779.95777C405.99127,402.58212,401.18332,402.93079,396.10565,399.56464Z"/>
    <path class="ab837153-2fee-48ed-8f70-5317aeee7331" d="M387.94727,355.215l-.27265,34.64425a.85711.85711,0,0,1-1.1452.74311c-11.53088-2.58146-20.64047-12.2305-20.56427-22.01426s9.311-16.11578,20.84759-14.52627A1.2902,1.2902,0,0,1,387.94727,355.215Z"/>
    <path class="b92447d7-249a-487b-a182-7e90d06c5401" d="M382.573,358.7052a1.65791,1.65791,0,0,1,.54391,1.684,38.1975,38.1975,0,0,0-.18869,22.56018,1.25571,1.25571,0,0,1-.571,1.48474,2.0352,2.0352,0,0,1-1.9043-.047c-6.25674-3.21372-10.66153-9.13327-10.61545-15.09964.04416-5.96821,4.54038-10.28357,10.83686-11.22229A2.34508,2.34508,0,0,1,382.573,358.7052Z"/>
    <path class="b92447d7-249a-487b-a182-7e90d06c5401" d="M384.65179,381.584c-.0166-6.32293.039-12.61776.14634-18.91735A34.105,34.105,0,0,0,384.65179,381.584Z"/>
    <path class="ab837153-2fee-48ed-8f70-5317aeee7331" d="M376.42508,366.26477a15.6703,15.6703,0,0,1,2.70953,2.00208l-.006-.00171a14.32211,14.32211,0,0,1-3.23083-.53l-.06614-.02033a1.29554,1.29554,0,0,1-.716-.50561.82364.82364,0,0,1-.12158-.73786.66884.66884,0,0,1,.5202-.42126,1.13268,1.13268,0,0,1,.7937.14706Z"/>
    <path class="ab837153-2fee-48ed-8f70-5317aeee7331" d="M377.72479,363.33893a14.3669,14.3669,0,0,1,2.30713,2.35629h-.00473a15.48834,15.48834,0,0,1-3.1727-1.06656l-.06436-.03009a1.22977,1.22977,0,0,1-.616-.6008.72825.72825,0,0,1,.04245-.71548.75734.75734,0,0,1,.62885-.30554,1.20452,1.20452,0,0,1,.777.278Z"/>
    <path class="ab837153-2fee-48ed-8f70-5317aeee7331" d="M379.24283,361.06906a12.15728,12.15728,0,0,1,1.75622,2.15009h-.00473a13.47209,13.47209,0,0,1-2.63787-1.16928l-.054-.02817a1.032,1.032,0,0,1-.46951-.554.58311.58311,0,0,1,.11032-.58218.68556.68556,0,0,1,.57763-.19415,1.0824,1.0824,0,0,1,.643.30014Z"/>
    <path class="ab837153-2fee-48ed-8f70-5317aeee7331" d="M376.35831,374.67914a10.12736,10.12736,0,0,0,2.73382-1.01743l-.00543-.00152a14.61148,14.61148,0,0,0-3.22852-.63843l-.0671-.00354a.87449.87449,0,0,0-.7211.24573.69141.69141,0,0,0-.13559.69067,1.10791,1.10791,0,0,0,.51327.61,1.14158,1.14158,0,0,0,.79315.14032Z"/>
    <path class="ab837153-2fee-48ed-8f70-5317aeee7331" d="M377.61163,378.066a8.81874,8.81874,0,0,0,2.33637-1.5152l-.00577-.00137a13.19991,13.19991,0,0,0-3.18185-.08505l-.06388.006a.71705.71705,0,0,0-.59051,1.10705,1.18564,1.18564,0,0,0,.6214.53189,1.02786,1.02786,0,0,0,.77859.00373Z"/>
    <path class="ab837153-2fee-48ed-8f70-5317aeee7331" d="M379.089,380.87613a7.15152,7.15152,0,0,0,1.781-1.50977h-.0047a10.66629,10.66629,0,0,0-2.6485.21l-.05081.01136a.62865.62865,0,0,0-.47739.38159.68388.68388,0,0,0,.0993.62143,1.02839,1.02839,0,0,0,.57065.40182.8371.8371,0,0,0,.64935-.06735Z"/>
    <path class="ab837153-2fee-48ed-8f70-5317aeee7331" d="M375.76245,369.54871a15.87779,15.87779,0,0,1,3.09537,1.37317l-.00778.00146a12.35234,12.35234,0,0,1-3.09427.25046l-.06577-.0018a1.31914,1.31914,0,0,1-.81183-.34067,1.01057,1.01057,0,0,1-.347-.72083.62479.62479,0,0,1,.33615-.55651.99622.99622,0,0,1,.76749-.04541Z"/>
    <path class="a6dc273b-f2ad-4142-9c1e-b5a8a4f59086" d="M341.26529,396.78339c-3.51007-4.965-2.22907-11.93726,2.68487-16.61417l18.42869,17.45255a16.73617,16.73617,0,0,1-1.63813,1.26217C354.00443,403.38739,345.2681,402.44476,341.26529,396.78339Z"/>
    <path class="b92447d7-249a-487b-a182-7e90d06c5401" d="M351.02112,394.97641a1.68673,1.68673,0,0,1,1.95935.95514,1.25983,1.25983,0,0,1-.9715,1.67035,1.688,1.688,0,0,1-1.96029-.95511,1.26216,1.26216,0,0,1,.97244-1.67038Z"/>
    <path class="b92447d7-249a-487b-a182-7e90d06c5401" d="M347.6463,394.40091c-.36972.17255-.74661-.09149-.84219-.58865a1.13034,1.13034,0,0,1,.4949-1.21155c.36923-.1723.74661.09164.84229.5888A1.13135,1.13135,0,0,1,347.6463,394.40091Z"/>
    <path class="b92447d7-249a-487b-a182-7e90d06c5401" d="M347.144,388.933a.98363.98363,0,0,1-1.14331-.55609.73544.73544,0,0,1,.56687-.97513.98525.98525,0,0,1,1.14422.556.73641.73641,0,0,1-.56778.97522Z"/>
    <path class="b92447d7-249a-487b-a182-7e90d06c5401" d="M343.8277,391.1792a.58349.58349,0,0,1-.6785-.32916.43663.43663,0,0,1,.33652-.5791.584.584,0,0,1,.678.33081.43529.43529,0,0,1-.336.57745Z"/>
    <path class="b92447d7-249a-487b-a182-7e90d06c5401" d="M349.47818,391.40775a.56463.56463,0,0,1-.618-.41629.453.453,0,0,1,.43753-.52057.56677.56677,0,0,1,.61813.41793.45254.45254,0,0,1-.43771.51893Z"/>
    <path class="b92447d7-249a-487b-a182-7e90d06c5401" d="M347.67514,396.60965a.56485.56485,0,0,1,.6181.41614.45282.45282,0,0,1-.43881.51913.56531.56531,0,0,1-.618-.41632.45243.45243,0,0,1,.38092-.5141A.44733.44733,0,0,1,347.67514,396.60965Z"/>
    <path class="a6dc273b-f2ad-4142-9c1e-b5a8a4f59086" d="M226.87627,385.73315c8.1098-2.33963,18.0527,3.54081,23.77833,13.46991l-29.925,17.21329a34.29622,34.29622,0,0,1-1.47258-3.14007C214.21046,400.75671,217.62885,388.40161,226.87627,385.73315Z"/>
    <path class="b92447d7-249a-487b-a182-7e90d06c5401" d="M227.25928,401.16647a2.00288,2.00288,0,0,1-1.85906,2.3454,2.4751,2.4751,0,0,1-2.22729-2.38971,2.00451,2.00451,0,0,1,1.85924-2.3468A2.48053,2.48053,0,0,1,227.25928,401.16647Z"/>
    <path class="b92447d7-249a-487b-a182-7e90d06c5401" d="M228.89021,396.51462c-.16736-.64441.30818-1.04962,1.06069-.90619a2.23931,2.23931,0,0,1,1.66436,1.42374c.16713.64358-.30842,1.04953-1.06092.90625A2.24158,2.24158,0,0,1,228.89021,396.51462Z"/>
    <path class="b92447d7-249a-487b-a182-7e90d06c5401" d="M237.03854,398.90219a1.16838,1.16838,0,0,1,1.08295-1.36929,1.44473,1.44473,0,0,1,1.30032,1.39468,1.17022,1.17022,0,0,1-1.0831,1.37067A1.44724,1.44724,0,0,1,237.03854,398.90219Z"/>
    <path class="b92447d7-249a-487b-a182-7e90d06c5401" d="M234.51132,392.72208a.69323.69323,0,0,1,.64142-.81308.85762.85762,0,0,1,.77226.82806.6933.6933,0,0,1-.64372.81131A.85523.85523,0,0,1,234.51132,392.72208Z"/>
    <path class="b92447d7-249a-487b-a182-7e90d06c5401" d="M232.86021,400.93121a.65722.65722,0,0,1,.75534-.67382.90162.90162,0,0,1,.66277.94369.65927.65927,0,0,1-.75778.67316A.90063.90063,0,0,1,232.86021,400.93121Z"/>
    <path class="b92447d7-249a-487b-a182-7e90d06c5401" d="M225.63925,395.2933a.65739.65739,0,0,1-.75513.6742.90111.90111,0,0,1-.66037-.94473.65777.65777,0,0,1,.75535-.67383A.90035.90035,0,0,1,225.63925,395.2933Z"/>
    <path class="aaadb074-a375-4f95-a698-06fce2a844bf" d="M222.74826,360.522c.50873-5.84207,8.43831-10.35766,8.43831-10.35766s7.73834-4.89286,12.52859-2.23218c4.9764,2.76089,6.71935,7.33762,4.53278,10.81845a.59937.59937,0,0,1-1.13545-.1785,2.16808,2.16808,0,0,0-1.88826-2.19577c-2.62116-.3551-5.54566.80866-4.52361,4.20032,1.02346,3.39557,7.17586,10.31558,7.17586,10.31558s3.81136,2.94248-2.77969,6.90125c-6.58875,3.95535-6.82529-1.13559-6.82529-1.13559s-2.054-9.38111-4.1301-12.14029c-2.07792-2.75925-4.542-.68723-5.66957,1.92175a2.34283,2.34283,0,0,0,.68244,2.91556.67614.67614,0,0,1-.46912,1.142C224.82137,370.64783,222.21762,366.59094,222.74826,360.522Z"/>
    <path class="aaadb074-a375-4f95-a698-06fce2a844bf" d="M260.51984,436.19077c-4.51084-1.96872-5.649-9.48642-5.649-9.48642s-1.49926-7.46653,2.12-10.56543c3.75742-3.22013,7.95856-3.38163,10.0593-.71012a.52065.52065,0,0,1-.49652.85559,1.95085,1.95085,0,0,0-2.34341.91449c-1.10062,1.99033-1.08179,4.62867,1.94754,4.72348,3.03289.09476,10.481-2.9476,10.481-2.9476s3.53949-2.2446,4.64972,4.05908c1.10819,6.301-3.03448,5.12626-3.03448,5.12626s-8.138-.8772-10.9903.03585c-2.85287.91455-1.96466,3.42969-.23077,5.02524a2.02112,2.02112,0,0,0,2.543.23758.55132.55132,0,0,1,.76654.679C269.25909,437.25217,265.2052,438.23767,260.51984,436.19077Z"/>
    <path class="aaadb074-a375-4f95-a698-06fce2a844bf" d="M186.57,432.71652c-4.57288,3.67118-13.31751,1.06342-13.31751,1.06342s-8.885-2.2088-10.27415-7.50937c-1.44539-5.50437.65655-9.92771,4.68324-10.75418a.59938.59938,0,0,1,.656.94382,2.16807,2.16807,0,0,0-.28116,2.88235c1.55548,2.1394,4.41813,3.44794,6.16221.36475,1.74593-3.087,2.49266-12.31629,2.49266-12.31629s-.50878-4.788,6.90815-2.76251c7.41287,2.02628,3.898,5.71664,3.898,5.71664s-5.35829,7.96952-5.9167,11.377c-.55716,3.4089,2.64343,3.75689,5.30806,2.768a2.34281,2.34281,0,0,0,1.63486-2.50866.67613.67613,0,0,1,1.14943-.4505C192.45326,424.21838,191.322,428.90433,186.57,432.71652Z"/>
    <path class="aaadb074-a375-4f95-a698-06fce2a844bf" d="M119.23962,411.62683c-2.14038,5.45963-11.02339,7.548-11.02339,7.548s-8.80626,2.50427-12.64834-1.40265c-3.99227-4.05573-4.36953-8.93854-1.28772-11.65879a.59937.59937,0,0,1,1.03859.49237,2.1681,2.1681,0,0,0,1.19008,2.6402c2.41368,1.082,5.54793.79294,5.52694-2.7493-.02124-3.54641-3.96511-11.924-3.96511-11.924s-2.82344-3.90033,4.61819-5.83322c7.43844-1.93021,6.22538,3.01972,6.22538,3.01972s-.68326,9.579.52759,12.81271c1.21263,3.23431,4.16216,1.94385,5.98162-.23966a2.34285,2.34285,0,0,0,.17009-2.98953.67612.67612,0,0,1,.773-.96261C120.11524,401.32809,121.46518,405.95578,119.23962,411.62683Z"/>
    <path class="ab837153-2fee-48ed-8f70-5317aeee7331" d="M146.15154,363.21429,167.768,336.13977a.857.857,0,0,1,1.3596.12311c7.47273,9.15332,8.67532,22.36859,2.57133,30.01507s-17.27761,6.92081-25.36758-1.456A1.29017,1.29017,0,0,1,146.15154,363.21429Z"/>
    <path class="b92447d7-249a-487b-a182-7e90d06c5401" d="M152.53378,363.78979a1.65791,1.65791,0,0,1,.61263-1.66024,38.1975,38.1975,0,0,0,14.08529-17.6239,1.25569,1.25569,0,0,1,1.36626-.81479,2.03518,2.03518,0,0,1,1.46842,1.21341c2.93473,6.39236,2.74159,13.7684-.98046,18.43164-3.72168,4.66589-9.92323,5.2817-15.45442,2.13012A2.34506,2.34506,0,0,1,152.53378,363.78979Z"/>
    <path class="b92447d7-249a-487b-a182-7e90d06c5401" d="M165.03279,344.51462q-5.83955,7.47354-11.80157,14.78549A34.10528,34.10528,0,0,0,165.03279,344.51462Z"/>
    <path class="ab837153-2fee-48ed-8f70-5317aeee7331" d="M162.03828,361.64322a15.66893,15.66893,0,0,1-.89387-3.2482l.00369.00507a14.32314,14.32314,0,0,1,2.21317,2.41268l.03944.05683a1.29551,1.29551,0,0,1,.2507.83993.82356.82356,0,0,1-.36021.65537.66883.66883,0,0,1-.6693.00989,1.13259,1.13259,0,0,1-.53328-.606Z"/>
    <path class="ab837153-2fee-48ed-8f70-5317aeee7331" d="M159.20877,363.14105a14.36807,14.36807,0,0,1-.3586-3.27817l.0037.00293a15.48937,15.48937,0,0,1,1.836,2.79868l.032.06342a1.22976,1.22976,0,0,1,.11325.853.72818.72818,0,0,1-.47538.53641.75742.75742,0,0,1-.68325-.14822,1.20453,1.20453,0,0,1-.43928-.69855Z"/>
    <path class="ab837153-2fee-48ed-8f70-5317aeee7331" d="M156.61279,363.98819a12.15709,12.15709,0,0,1-.05276-2.7757l.00369.00293a13.47222,13.47222,0,0,1,1.352,2.54908l.025.05548a1.03187,1.03187,0,0,1,.027.72567.58311.58311,0,0,1-.44641.38965.68558.68558,0,0,1-.57417-.20416,1.08233,1.08233,0,0,1-.32024-.63327Z"/>
    <path class="ab837153-2fee-48ed-8f70-5317aeee7331" d="M167.28891,355.06772a10.12815,10.12815,0,0,0-2.77831-.8888l.00333.00458a14.61236,14.61236,0,0,0,2.14438,2.49649l.0506.04425a.87441.87441,0,0,0,.71884.25223.69138.69138,0,0,0,.53329-.45935,1.10779,1.10779,0,0,0-.02676-.79678,1.14155,1.14155,0,0,0-.537-.60031Z"/>
    <path class="ab837153-2fee-48ed-8f70-5317aeee7331" d="M168.39563,351.63019a8.819,8.819,0,0,0-2.77329-.25183l.0037.00464a13.20034,13.20034,0,0,0,2.44954,2.0325l.054.0347a.71706.71706,0,0,0,1.14825-.50574,1.18577,1.18577,0,0,0-.16008-.80216,1.028,1.028,0,0,0-.61-.48388Z"/>
    <path class="ab837153-2fee-48ed-8f70-5317aeee7331" d="M168.96986,348.50769a7.15193,7.15193,0,0,0-2.33323.087l.00369.00293a10.666,10.666,0,0,0,2.2124,1.471l.047.02246a.62868.62868,0,0,0,.61111-.00515.684.684,0,0,0,.30581-.55,1.02842,1.02842,0,0,0-.20049-.66852.83714.83714,0,0,0-.55225-.34817Z"/>
    <path class="ab837153-2fee-48ed-8f70-5317aeee7331" d="M164.58806,359.47018a15.87945,15.87945,0,0,1-1.58579-2.992l.007.00366a12.35149,12.35149,0,0,1,2.58793,1.71457l.05062.04212a1.31918,1.31918,0,0,1,.428.7694,1.0106,1.0106,0,0,1-.17245.78119.62489.62489,0,0,1-.60813.23.99617.99617,0,0,1-.63159-.43841Z"/>
    <path class="a32c8c7e-e074-4447-bb10-761e7c107bc9" d="M531.68634,369.37366a3.18227,3.18227,0,0,1,.15881-.85025c.81336-2.00815,3.28724-1.95554,4.97632-.72333,1.68909,1.2298,3.10077,4.02924,1.5235,5.45566a1.14686,1.14686,0,0,1-1.0058.14715c.82788,1.302,1.48053,2.95462.58356,4.32532a3.79134,3.79134,0,0,1-5.266,1.00858q-.04605-.03132-.09125-.06391c-.46088-.33722-.387-.52814-.64978-1.00632-1.05,1.41465-1.70117,1.56833-2.53229,2.90891a.34147.34147,0,0,1-.2583.15192.42585.42585,0,0,1-.30829-.114c-.56622-.50567-1.58594-1.46078-1.45813-1.62863,1.15131-1.525,2.34247-.62137,3.28949-2.29355a5.22292,5.22292,0,0,1-1.76092-.86325c-1.68915-1.23019-1.7843-3.33545-.61273-5.12546A2.92024,2.92024,0,0,1,531.68634,369.37366Z"/>
    <path class="a6dc273b-f2ad-4142-9c1e-b5a8a4f59086" d="M441.84442,351.067c-10.20508,0-18.50894,6.10931-18.50894,13.6148,0,7.50693,8.30386,13.61338,18.50894,13.61338,10.20545,0,18.50189-6.10645,18.50189-13.61338C460.34631,357.17627,452.04987,351.067,441.84442,351.067Z"/>
    <path class="b92447d7-249a-487b-a182-7e90d06c5401" d="M439.58429,359.57657c1.39374,0,2.51971-.83011,2.51971-1.85666,0-1.024-1.12594-1.85666-2.51971-1.85666-1.40118,0-2.52753.8327-2.52753,1.85666C437.05679,358.74646,438.18311,359.57657,439.58429,359.57657Z"/>
    <path class="b92447d7-249a-487b-a182-7e90d06c5401" d="M434.25833,361.51321c-.9848,0-1.78274.58591-1.78274,1.31189,0,.72455.79794,1.31162,1.78274,1.31162.9852,0,1.78665-.58707,1.78665-1.31162C436.045,362.09912,435.24353,361.51321,434.25833,361.51321Z"/>
    <path class="b92447d7-249a-487b-a182-7e90d06c5401" d="M437.05679,368.63385c-.81317,0-1.47.48465-1.47,1.08295,0,.5997.6568,1.08407,1.47,1.08407s1.47782-.48437,1.47782-1.08407C438.53458,369.1185,437.87,368.63385,437.05679,368.63385Z"/>
    <path class="b92447d7-249a-487b-a182-7e90d06c5401" d="M442.104,372.69406c-.67947,0-1.23306.40729-1.23306.9115,0,.50162.55359.90747,1.23306.90747.68338,0,1.237-.40585,1.237-.90747C443.341,373.10135,442.78738,372.69406,442.104,372.69406Z"/>
    <path class="b92447d7-249a-487b-a182-7e90d06c5401" d="M430.49384,366.7717c-.48087,0-.87027.28793-.87027.64316s.3894.64315.87027.64315c.4848,0,.87066-.28793.87066-.64315S430.97861,366.7717,430.49384,366.7717Z"/>
    <path class="b92447d7-249a-487b-a182-7e90d06c5401" d="M439.26764,364.69009c-.47339.05494-.80182.38486-.72562.73606a.87435.87435,0,0,0,1.00046.53213c.47345-.05322.79794-.38458.72131-.73578A.86686.86686,0,0,0,439.26764,364.69009Z"/>
    <path class="b92447d7-249a-487b-a182-7e90d06c5401" d="M447.38071,357.24933c-.48127.05609-.80576.38486-.733.73462a.88016.88016,0,0,0,1.00006.53644c.47735-.05753.80185-.38343.72912-.73462A.88474.88474,0,0,0,447.38071,357.24933Z"/>
    <path class="b92447d7-249a-487b-a182-7e90d06c5401" d="M433.33841,358.52039c.47305-.05753.79794-.38343.72134-.73462a.87019.87019,0,0,0-.99658-.53644c-.477.05609-.79791.38486-.72522.73462A.87786.87786,0,0,0,433.33841,358.52039Z"/>
    <path class="b92447d7-249a-487b-a182-7e90d06c5401" d="M453.222,366.4599c-.71386,0-1.29052.42828-1.29052.95493,0,.52807.57666.95349,1.29052.95349.72522,0,1.30188-.42542,1.30188-.95349C454.52383,366.88818,453.94717,366.4599,453.222,366.4599Z"/>
    <path class="b92447d7-249a-487b-a182-7e90d06c5401" d="M443.574,363.908c.821,0,1.48132-.48465,1.48132-1.08295s-.66031-1.08438-1.48132-1.08438c-.80536,0-1.47.48612-1.47,1.08438S442.76862,363.908,443.574,363.908Z"/>
    <path class="b92447d7-249a-487b-a182-7e90d06c5401" d="M445.05923,367.41486c-1.36285,0-2.45871.8088-2.45871,1.80749,0,1.00009,1.09586,1.8075,2.45871,1.8075,1.35544,0,2.45481-.80741,2.45481-1.8075C447.514,368.22366,446.41467,367.41486,445.05923,367.41486Z"/>
    <path class="b92447d7-249a-487b-a182-7e90d06c5401" d="M452.657,361.96967c0-.84681-.93164-1.52933-2.08105-1.52933-1.149,0-2.08066.68255-2.08066,1.52933,0,.8442.93164,1.53106,2.08066,1.53106C451.72537,363.50073,452.657,362.81387,452.657,361.96967Z"/>
    <path class="a6dc273b-f2ad-4142-9c1e-b5a8a4f59086" d="M526.13983,316.72183c-9.992,0-18.12243,7.405-18.12243,16.50229,0,9.099,8.13049,16.50055,18.12243,16.50055,9.99237,0,18.11554-7.40152,18.11554-16.50055C544.25537,324.12683,536.13214,316.72183,526.13983,316.72183Z"/>
    <path class="b92447d7-249a-487b-a182-7e90d06c5401" d="M523.92688,327.03619a2.26061,2.26061,0,1,0-2.47473-2.25042,2.364,2.364,0,0,0,2.47223,2.25055Z"/>
    <path class="b92447d7-249a-487b-a182-7e90d06c5401" d="M518.71216,329.38354a1.59722,1.59722,0,1,0,1.74933,1.59012A1.672,1.672,0,0,0,518.71216,329.38354Z"/>
    <path class="b92447d7-249a-487b-a182-7e90d06c5401" d="M521.45215,338.01434a1.31948,1.31948,0,1,0,1.447,1.31263,1.37937,1.37937,0,0,0-1.44281-1.31284Z"/>
    <path class="b92447d7-249a-487b-a182-7e90d06c5401" d="M526.394,342.93567a1.10727,1.10727,0,1,0,1.21118,1.10483A1.15979,1.15979,0,0,0,526.394,342.93567Z"/>
    <path class="b92447d7-249a-487b-a182-7e90d06c5401" d="M515.02625,335.75729a.78268.78268,0,1,0,.85247.77954A.81806.81806,0,0,0,515.02625,335.75729Z"/>
    <path class="b92447d7-249a-487b-a182-7e90d06c5401" d="M523.61682,333.23422a.79288.79288,0,0,0-.71356.86487l.00311.02728a.84471.84471,0,0,0,.97956.645.788.788,0,0,0,.71008-.85888l-.00385-.03293A.83867.83867,0,0,0,523.61682,333.23422Z"/>
    <path class="b92447d7-249a-487b-a182-7e90d06c5401" d="M531.56049,324.21539a.79551.79551,0,0,0-.72059.86393l.00287.02648a.85122.85122,0,0,0,.97919.65021.79522.79522,0,0,0,.71655-.86673l-.00262-.02368A.85553.85553,0,0,0,531.56049,324.21539Z"/>
    <path class="b92447d7-249a-487b-a182-7e90d06c5401" d="M517.81146,325.756a.78969.78969,0,0,0,.70954-.86242l-.00324-.028a.84322.84322,0,0,0-.97577-.65021.79256.79256,0,0,0-.713.86487l.00287.02554A.84931.84931,0,0,0,517.81146,325.756Z"/>
    <path class="b92447d7-249a-487b-a182-7e90d06c5401" d="M537.27979,335.37936a1.16208,1.16208,0,1,0,1.27471,1.15747,1.21386,1.21386,0,0,0-1.26751-1.1578Z"/>
    <path class="b92447d7-249a-487b-a182-7e90d06c5401" d="M527.83325,332.28629a1.319,1.319,0,1,0-1.43927-1.31263A1.38475,1.38475,0,0,0,527.83325,332.28629Z"/>
    <path class="b92447d7-249a-487b-a182-7e90d06c5401" d="M529.28748,336.53683a2.20023,2.20023,0,1,0,2.40356,2.19083A2.30337,2.30337,0,0,0,529.28748,336.53683Z"/>
    <path class="b92447d7-249a-487b-a182-7e90d06c5401" d="M536.72662,329.93683a2.0463,2.0463,0,1,0-2.2279,1.84689q.09484.00888.19031.00888A1.95043,1.95043,0,0,0,536.72662,329.93683Z"/>
    <path class="ab837153-2fee-48ed-8f70-5317aeee7331" d="M404.08609,350.79587a26.4055,26.4055,0,0,0,8.70886-.17682,20.98147,20.98147,0,0,0,8.90531,2.00677c6.28448.17,12.31881-1.86,14.31414-4.834,1.56656-2.275.608-4.69708-2.38516-6.42059,4.13651-1.19,6.88574-3.32773,7.17826-5.70258a3.50926,3.50926,0,0,0-.10032-1.221l-4.36319,1.20392c-.00912.00992-.00378.01837.00214.02774a3.06628,3.06628,0,0,1-1.14481,1.87976,10.2759,10.2759,0,0,1-4.7799,2.042,3.00639,3.00639,0,0,0-2.26523,1.34977c-.22232.61383.17963,1.22815,1.086,1.60269,2.73221,1.1427,3.72317,2.89489,2.59088,4.574-1.32745,1.92319-5.34885,3.23361-9.60266,3.11206h0a13.97311,13.97311,0,0,1-6.5333-1.5697,5.47247,5.47247,0,0,0-3.66732-.38876,17.97251,17.97251,0,0,1-6.481.2117c-2.80286-.41513-4.895-1.51123-5.62232-2.82309l-4.096,1.12878C397.07266,348.6795,400.054,350.20068,404.08609,350.79587Z"/>
    <path class="a6dc273b-f2ad-4142-9c1e-b5a8a4f59086" d="M494.13425,356.661c-9.992,0-18.12244,7.405-18.12244,16.50229,0,9.099,8.13046,16.50055,18.12244,16.50055,9.99237,0,18.11557-7.40152,18.11557-16.50055C512.24982,364.06607,504.12662,356.661,494.13425,356.661Z"/>
    <path class="b92447d7-249a-487b-a182-7e90d06c5401" d="M491.92136,366.97543a2.2606,2.2606,0,1,0-2.47474-2.25042,2.364,2.364,0,0,0,2.47226,2.25055Z"/>
    <path class="b92447d7-249a-487b-a182-7e90d06c5401" d="M486.7066,369.32278a1.59722,1.59722,0,1,0,1.74936,1.59012A1.672,1.672,0,0,0,486.7066,369.32278Z"/>
    <path class="b92447d7-249a-487b-a182-7e90d06c5401" d="M489.44662,377.95358a1.31948,1.31948,0,1,0,1.447,1.31262,1.37938,1.37938,0,0,0-1.44285-1.31283Z"/>
    <path class="b92447d7-249a-487b-a182-7e90d06c5401" d="M494.38843,382.87491a1.10727,1.10727,0,1,0,1.21121,1.10483A1.15983,1.15983,0,0,0,494.38843,382.87491Z"/>
    <path class="b92447d7-249a-487b-a182-7e90d06c5401" d="M483.02072,375.69653a.78267.78267,0,1,0,.85248.77954A.81808.81808,0,0,0,483.02072,375.69653Z"/>
    <path class="b92447d7-249a-487b-a182-7e90d06c5401" d="M491.6113,373.17346a.7928.7928,0,0,0-.71353.86487l.00308.02728a.8447.8447,0,0,0,.97955.645.788.788,0,0,0,.71-.85888l-.00381-.03293A.83867.83867,0,0,0,491.6113,373.17346Z"/>
    <path class="b92447d7-249a-487b-a182-7e90d06c5401" d="M499.555,364.15463a.79547.79547,0,0,0-.72058.86392l.00284.02649a.85125.85125,0,0,0,.97919.65021.79515.79515,0,0,0,.71649-.86673l-.0026-.02368A.85551.85551,0,0,0,499.555,364.15463Z"/>
    <path class="b92447d7-249a-487b-a182-7e90d06c5401" d="M485.80591,365.69522a.78971.78971,0,0,0,.70953-.86243l-.00323-.028a.84322.84322,0,0,0-.97577-.65021.79251.79251,0,0,0-.713.86484l.00286.02557A.84932.84932,0,0,0,485.80591,365.69522Z"/>
    <path class="b92447d7-249a-487b-a182-7e90d06c5401" d="M505.27423,375.3186a1.16208,1.16208,0,1,0,1.27469,1.15747,1.21389,1.21389,0,0,0-1.26752-1.1578Z"/>
    <path class="b92447d7-249a-487b-a182-7e90d06c5401" d="M495.82773,372.22552a1.319,1.319,0,1,0-1.4393-1.31262A1.38471,1.38471,0,0,0,495.82773,372.22552Z"/>
    <path class="b92447d7-249a-487b-a182-7e90d06c5401" d="M497.282,376.47607a2.20023,2.20023,0,1,0,2.40354,2.19083A2.30338,2.30338,0,0,0,497.282,376.47607Z"/>
    <path class="b92447d7-249a-487b-a182-7e90d06c5401" d="M504.7211,369.87607a2.04629,2.04629,0,1,0-2.22791,1.84689q.0949.00888.19031.00888A1.95042,1.95042,0,0,0,504.7211,369.87607Z"/>
    <path class="a32c8c7e-e074-4447-bb10-761e7c107bc9" d="M415.73761,360.43118a3.18087,3.18087,0,0,1,.8588.10324c2.05673.68122,2.16491,3.15329,1.045,4.9188-1.11749,1.76541-3.81931,3.356-5.34519,1.87466a1.14686,1.14686,0,0,1-.21218-.99414c-1.24546.91071-2.85224,1.66928-4.27829.86325a3.79138,3.79138,0,0,1-1.34842-5.18948q.0282-.048.0578-.09513c.30658-.48181.50189-.4205.962-.71377-1.47986-.9559-1.6755-1.5957-3.06723-2.338a.34159.34159,0,0,1-.16839-.2479.42588.42588,0,0,1,.09378-.315c.46783-.59787,1.3547-1.67743,1.53048-1.56085,1.59656,1.04983.77222,2.29715,2.50235,3.13357a5.22287,5.22287,0,0,1,.74707-1.81329c1.11789-1.76547,3.21253-1.99719,5.07483-.94434A2.92027,2.92027,0,0,1,415.73761,360.43118Z"/>
    <path class="a32c8c7e-e074-4447-bb10-761e7c107bc9" d="M554.53088,354.11462a3.18233,3.18233,0,0,1,.03217.86438c-.35156,2.13788-2.77643,2.63092-4.69519,1.80054-1.91828-.828-3.91138-3.2482-2.68665-4.98672a1.14685,1.14685,0,0,1,.94879-.36487c-1.09411-1.08789-2.09436-2.55643-1.521-4.09091a3.79135,3.79135,0,0,1,4.91516-2.14252q.05172.02033.103.0422c.5238.22757.49371.43.85528.83869.713-1.611,1.31439-1.90421,1.8302-3.39481a.3415.3415,0,0,1,.21851-.205.42572.42572,0,0,1,.3258.04339c.66364.36869,1.86847,1.07605,1.78077,1.26789-.78754,1.741-2.14832,1.12158-2.70423,2.96112a5.22236,5.22236,0,0,1,1.90772.45465c1.91845.82837,2.47448,2.86111,1.72552,4.865A2.9203,2.9203,0,0,1,554.53088,354.11462Z"/>
    <path class="ab837153-2fee-48ed-8f70-5317aeee7331" d="M215.08646,364.898a7.83189,7.83189,0,0,0,1.179-4.56125,7.9453,7.9453,0,0,0,3.36947-4.16708,7.2188,7.2188,0,0,0-2.55055-8.5011,6.58235,6.58235,0,0,0-6.73823-.185,6.57424,6.57424,0,0,0-4.53028-4.98593,7.25181,7.25181,0,0,0-8.12523,3.59909,7.97255,7.97255,0,0,0-.97717,5.269,7.76562,7.76562,0,0,0-2.694,3.86545,7.048,7.048,0,0,0,1.56863,7.11038,5.979,5.979,0,0,0,1.03675.83234,6.37559,6.37559,0,0,0,6.40857.18225,6.34993,6.34993,0,0,0,4.30963,4.738A6.92035,6.92035,0,0,0,215.08646,364.898Zm-7.039.88214a3.9874,3.9874,0,0,1-2.76435-3.69739,1.71,1.71,0,0,0-2.7432-1.25711,4.01839,4.01839,0,0,1-4.61452.309,4.53975,4.53975,0,0,1-1.607-5.18127,5.35918,5.35918,0,0,1,2.07254-2.82245,1.826,1.826,0,0,0,.76152-1.90265,5.46807,5.46807,0,0,1,.63394-3.9357,4.81434,4.81434,0,0,1,5.34317-2.475,3.96027,3.96027,0,0,1,1.69342.99984,4.55652,4.55652,0,0,1,1.27051,2.947,1.70691,1.70691,0,0,0,2.746,1.2605,4.23736,4.23736,0,0,1,4.92655-.32766,4.79954,4.79954,0,0,1,1.5944,5.66091v.00312a5.47647,5.47647,0,0,1-2.57844,3.04052,1.82558,1.82558,0,0,0-.952,1.81363,5.33727,5.33727,0,0,1-.79664,3.4079,4.55181,4.55181,0,0,1-4.98594,2.15683Z"/>
    <path class="ab837153-2fee-48ed-8f70-5317aeee7331" d="M207.30663,405.829a7.83189,7.83189,0,0,0,1.179-4.56125,7.94533,7.94533,0,0,0,3.36947-4.16705,7.21881,7.21881,0,0,0-2.55053-8.5011,6.58236,6.58236,0,0,0-6.73824-.185,6.57422,6.57422,0,0,0-4.53027-4.98593,7.25178,7.25178,0,0,0-8.12523,3.59909,7.97255,7.97255,0,0,0-.97718,5.269,7.76574,7.76574,0,0,0-2.694,3.86545,7.048,7.048,0,0,0,1.56864,7.11038,5.97932,5.97932,0,0,0,1.03674.83234,6.3756,6.3756,0,0,0,6.40857.18225,6.35,6.35,0,0,0,4.30965,4.738A6.92036,6.92036,0,0,0,207.30663,405.829Zm-7.039.88214a3.98744,3.98744,0,0,1-2.76435-3.69739,1.71,1.71,0,0,0-2.7432-1.25711,4.01839,4.01839,0,0,1-4.61452.309,4.53975,4.53975,0,0,1-1.607-5.18127,5.35914,5.35914,0,0,1,2.07254-2.82248,1.826,1.826,0,0,0,.76152-1.90265,5.46806,5.46806,0,0,1,.63394-3.9357,4.81435,4.81435,0,0,1,5.34316-2.475,3.96026,3.96026,0,0,1,1.69343.99985,4.55664,4.55664,0,0,1,1.27051,2.94705,1.70695,1.70695,0,0,0,2.746,1.2605,4.23737,4.23737,0,0,1,4.92655-.32767,4.79952,4.79952,0,0,1,1.5944,5.66092v.00312a5.47643,5.47643,0,0,1-2.57844,3.04052,1.82564,1.82564,0,0,0-.952,1.81363,5.33722,5.33722,0,0,1-.79665,3.4079,4.55184,4.55184,0,0,1-4.98594,2.15677Z"/>
    <path class="ab837153-2fee-48ed-8f70-5317aeee7331" d="M131.84843,393.24454a7.83184,7.83184,0,0,0,1.179-4.56125,7.94533,7.94533,0,0,0,3.36947-4.16705,7.2188,7.2188,0,0,0-2.55054-8.5011,6.5823,6.5823,0,0,0-6.73824-.185,6.5742,6.5742,0,0,0-4.53028-4.98593,7.2518,7.2518,0,0,0-8.12524,3.59909,7.97253,7.97253,0,0,0-.97716,5.269,7.76564,7.76564,0,0,0-2.694,3.86545,7.048,7.048,0,0,0,1.56864,7.11038,5.97932,5.97932,0,0,0,1.03674.83234,6.37564,6.37564,0,0,0,6.40857.18225,6.34991,6.34991,0,0,0,4.30964,4.738A6.92032,6.92032,0,0,0,131.84843,393.24454Zm-7.039.88214a3.98745,3.98745,0,0,1-2.76436-3.69739,1.71,1.71,0,0,0-2.7432-1.25711,4.01835,4.01835,0,0,1-4.6145.309,4.53977,4.53977,0,0,1-1.607-5.18127,5.359,5.359,0,0,1,2.07255-2.82248,1.826,1.826,0,0,0,.76152-1.90265,5.46791,5.46791,0,0,1,.63394-3.9357,4.8143,4.8143,0,0,1,5.34316-2.475,3.96023,3.96023,0,0,1,1.69342.99985,4.55654,4.55654,0,0,1,1.27051,2.947,1.70692,1.70692,0,0,0,2.746,1.2605,4.23737,4.23737,0,0,1,4.92655-.32767,4.79952,4.79952,0,0,1,1.5944,5.66092v.00311a5.47642,5.47642,0,0,1-2.57844,3.04053,1.82558,1.82558,0,0,0-.952,1.81363,5.33732,5.33732,0,0,1-.79665,3.4079,4.55182,4.55182,0,0,1-4.98592,2.15677Z"/>
    <path class="ab837153-2fee-48ed-8f70-5317aeee7331" d="M298.07526,418.88278a7.832,7.832,0,0,0,1.179-4.56125,7.94535,7.94535,0,0,0,3.36948-4.16705,7.21879,7.21879,0,0,0-2.55054-8.5011,6.58231,6.58231,0,0,0-6.73825-.185,6.57422,6.57422,0,0,0-4.53027-4.98593,7.25183,7.25183,0,0,0-8.12525,3.59909,7.97257,7.97257,0,0,0-.97717,5.269,7.76559,7.76559,0,0,0-2.694,3.86544,7.048,7.048,0,0,0,1.56863,7.11039,5.98158,5.98158,0,0,0,1.03675.83233,6.37559,6.37559,0,0,0,6.40857.18225,6.34993,6.34993,0,0,0,4.30963,4.738A6.92036,6.92036,0,0,0,298.07526,418.88278Zm-7.039.88214a3.98747,3.98747,0,0,1-2.76437-3.69738,1.71,1.71,0,0,0-2.74319-1.25712,4.01839,4.01839,0,0,1-4.61451.309,4.53978,4.53978,0,0,1-1.607-5.18128,5.35914,5.35914,0,0,1,2.07254-2.82248,1.826,1.826,0,0,0,.76151-1.90265,5.468,5.468,0,0,1,.63394-3.9357,4.81432,4.81432,0,0,1,5.34317-2.475,3.96049,3.96049,0,0,1,1.69342.99984,4.55664,4.55664,0,0,1,1.27051,2.94706,1.7069,1.7069,0,0,0,2.746,1.26049,4.23736,4.23736,0,0,1,4.92654-.32766,4.7995,4.7995,0,0,1,1.59439,5.66092v.00311a5.47644,5.47644,0,0,1-2.57846,3.04053,1.82561,1.82561,0,0,0-.952,1.81363,5.33725,5.33725,0,0,1-.79663,3.40789,4.55186,4.55186,0,0,1-4.98591,2.1568Z"/>
    <path class="a32c8c7e-e074-4447-bb10-761e7c107bc9" d="M339.15363,407.89435a3.18194,3.18194,0,0,1,.85879.10324c2.05673.68121,2.16492,3.15329,1.045,4.91879-1.11749,1.76541-3.8193,3.35593-5.34518,1.87467a1.1469,1.1469,0,0,1-.21219-.99414c-1.24545.9107-2.85223,1.66928-4.27829.86325a3.79135,3.79135,0,0,1-1.34842-5.18946q.0282-.048.0578-.09515c.30658-.48181.50189-.4205.962-.71378-1.47986-.9559-1.67551-1.5957-3.06726-2.338a.34155.34155,0,0,1-.1684-.24786.426.426,0,0,1,.09378-.315c.46784-.59787,1.35471-1.67742,1.53049-1.56085,1.59656,1.04984.77222,2.29715,2.50235,3.13358a5.22254,5.22254,0,0,1,.74707-1.8133c1.11789-1.76547,3.21252-1.99719,5.07483-.94433A2.92028,2.92028,0,0,1,339.15363,407.89435Z"/>
    <path class="a32c8c7e-e074-4447-bb10-761e7c107bc9" d="M359.24509,411.57193a2.604,2.604,0,0,1-.2208.68036c-.88074,1.546-2.90332,1.15912-4.1568-.09329-1.25378-1.25043-2.11291-3.759-.66784-4.71842a.94235.94235,0,0,1,.84027.01807c-.54-1.19049-.899-2.64633-.01764-3.65415a3.09972,3.09972,0,0,1,4.38119-.14639q.05713.05343.11151.10971c.34192.34256.261.49.42551.92151,1.01151-1.02286,1.56174-1.05942,2.386-2.05151a.27051.27051,0,0,1,.22793-.08966.367.367,0,0,1,.24057.137c.41037.49634,1.14456,1.42694,1.022,1.54782-1.10636,1.1-1.98664.18814-2.94117,1.438a4.54489,4.54489,0,0,1,1.35172.95761,3.03713,3.03713,0,0,1-.01907,4.29514l-.02457.02407A2.34589,2.34589,0,0,1,359.24509,411.57193Z"/>
    <path class="a6dc273b-f2ad-4142-9c1e-b5a8a4f59086" d="M272.805,353.33279c-8.42007,0-15.27145,6.19974-15.27145,13.81629,0,7.618,6.85138,13.81482,15.27145,13.81482,8.42038,0,15.26563-6.19681,15.26563-13.81482C288.07062,359.53253,281.22537,353.33279,272.805,353.33279Z"/>
    <path class="b92447d7-249a-487b-a182-7e90d06c5401" d="M270.94022,361.96832a1.89385,1.89385,0,1,0-2.08542-1.88415,1.98687,1.98687,0,0,0,2.08447,1.88421Z"/>
    <path class="b92447d7-249a-487b-a182-7e90d06c5401" d="M266.54584,363.93362a1.3381,1.3381,0,1,0,1.47415,1.3313A1.40528,1.40528,0,0,0,266.54584,363.93362Z"/>
    <path class="b92447d7-249a-487b-a182-7e90d06c5401" d="M268.8548,371.15961a1.10543,1.10543,0,1,0,1.21933,1.099,1.15933,1.15933,0,0,0-1.21649-1.09916Z"/>
    <path class="b92447d7-249a-487b-a182-7e90d06c5401" d="M273.01917,375.27994a.92763.92763,0,1,0,1.02066.925A.97475.97475,0,0,0,273.01917,375.27994Z"/>
    <path class="b92447d7-249a-487b-a182-7e90d06c5401" d="M263.43979,369.26993a.65567.65567,0,1,0,.71838.65268A.68753.68753,0,0,0,263.43979,369.26993Z"/>
    <path class="b92447d7-249a-487b-a182-7e90d06c5401" d="M270.67892,367.15753a.66473.66473,0,0,0-.60137.72257l.00268.02438a.71165.71165,0,0,0,.82547.54.6606.6606,0,0,0,.59845-.71741l-.0033-.02923A.70656.70656,0,0,0,270.67892,367.15753Z"/>
    <path class="b92447d7-249a-487b-a182-7e90d06c5401" d="M277.37289,359.60666a.667.667,0,0,0-.6073.72177l.00248.02371a.71714.71714,0,0,0,.82513.54437.66671.66671,0,0,0,.60388-.72412l-.00229-.02136A.7207.7207,0,0,0,277.37289,359.60666Z"/>
    <path class="b92447d7-249a-487b-a182-7e90d06c5401" d="M265.78683,360.89651a.66208.66208,0,0,0,.598-.72048l-.00281-.025a.71035.71035,0,0,0-.82227-.54437.66446.66446,0,0,0-.60086.7225l.00251.023A.71549.71549,0,0,0,265.78683,360.89651Z"/>
    <path class="b92447d7-249a-487b-a182-7e90d06c5401" d="M282.19244,368.95352a.97355.97355,0,1,0,1.07416.96906,1.02022,1.02022,0,0,0-1.06869-.96933Z"/>
    <path class="b92447d7-249a-487b-a182-7e90d06c5401" d="M274.232,366.36389a1.105,1.105,0,1,0-1.21286-1.099A1.1639,1.1639,0,0,0,274.232,366.36389Z"/>
    <path class="b92447d7-249a-487b-a182-7e90d06c5401" d="M275.45749,369.92261a1.84325,1.84325,0,1,0,2.02542,1.83423A1.93594,1.93594,0,0,0,275.45749,369.92261Z"/>
    <path class="b92447d7-249a-487b-a182-7e90d06c5401" d="M281.72632,364.39685a1.72546,1.72546,0,1,0-1.88861,1.54514q.0855.00855.1716.00857A1.63928,1.63928,0,0,0,281.72632,364.39685Z"/>
    <path class="a6dc273b-f2ad-4142-9c1e-b5a8a4f59086" d="M127.588,332.52011c-8.42,0-15.27144,6.19971-15.27144,13.81629,0,7.618,6.85139,13.81481,15.27144,13.81481,8.42038,0,15.26564-6.1968,15.26564-13.81481C142.85361,338.71982,136.00835,332.52011,127.588,332.52011Z"/>
    <path class="b92447d7-249a-487b-a182-7e90d06c5401" d="M125.72319,341.15564a1.89385,1.89385,0,1,0-2.08542-1.88416,1.98687,1.98687,0,0,0,2.08447,1.88422Z"/>
    <path class="b92447d7-249a-487b-a182-7e90d06c5401" d="M121.32881,343.12091a1.3381,1.3381,0,1,0,1.47415,1.3313A1.40527,1.40527,0,0,0,121.32881,343.12091Z"/>
    <path class="b92447d7-249a-487b-a182-7e90d06c5401" d="M123.63777,350.34692a1.10543,1.10543,0,1,0,1.21931,1.099,1.15933,1.15933,0,0,0-1.21652-1.09915Z"/>
    <path class="b92447d7-249a-487b-a182-7e90d06c5401" d="M127.80215,354.46722a.92764.92764,0,1,0,1.02065.925A.97476.97476,0,0,0,127.80215,354.46722Z"/>
    <path class="b92447d7-249a-487b-a182-7e90d06c5401" d="M118.22278,348.45724a.65567.65567,0,1,0,.71837.65265A.68756.68756,0,0,0,118.22278,348.45724Z"/>
    <path class="b92447d7-249a-487b-a182-7e90d06c5401" d="M125.4619,346.34485a.66473.66473,0,0,0-.60137.72256l.00268.02439a.71167.71167,0,0,0,.82546.54.66063.66063,0,0,0,.59845-.71744l-.00331-.02924A.70655.70655,0,0,0,125.4619,346.34485Z"/>
    <path class="b92447d7-249a-487b-a182-7e90d06c5401" d="M132.15588,338.794a.667.667,0,0,0-.60728.7218l.00247.02368a.71717.71717,0,0,0,.82514.54437.6667.6667,0,0,0,.60386-.72412l-.00227-.02136A.72073.72073,0,0,0,132.15588,338.794Z"/>
    <path class="b92447d7-249a-487b-a182-7e90d06c5401" d="M120.5698,340.08383a.66208.66208,0,0,0,.598-.72049l-.0028-.025a.71036.71036,0,0,0-.82228-.54437.66448.66448,0,0,0-.60086.72253l.00251.023A.71547.71547,0,0,0,120.5698,340.08383Z"/>
    <path class="b92447d7-249a-487b-a182-7e90d06c5401" d="M136.9754,348.14084a.97357.97357,0,1,0,1.07416.969,1.02024,1.02024,0,0,0-1.06871-.96933Z"/>
    <path class="b92447d7-249a-487b-a182-7e90d06c5401" d="M129.015,345.55118a1.105,1.105,0,1,0-1.21287-1.099A1.16387,1.16387,0,0,0,129.015,345.55118Z"/>
    <path class="b92447d7-249a-487b-a182-7e90d06c5401" d="M130.24046,349.10989a1.84325,1.84325,0,1,0,2.02542,1.83423A1.93594,1.93594,0,0,0,130.24046,349.10989Z"/>
    <path class="b92447d7-249a-487b-a182-7e90d06c5401" d="M136.50929,343.58414a1.72545,1.72545,0,1,0-1.88859,1.54516q.08553.00857.1716.00858A1.63927,1.63927,0,0,0,136.50929,343.58414Z"/>
    <path class="a6dc273b-f2ad-4142-9c1e-b5a8a4f59086" d="M145.50868,403.4664c-8.42,0-15.27145,6.19974-15.27145,13.81628,0,7.618,6.85139,13.81482,15.27145,13.81482,8.42038,0,15.26564-6.1968,15.26564-13.81482C160.77432,409.66614,153.92906,403.4664,145.50868,403.4664Z"/>
    <path class="b92447d7-249a-487b-a182-7e90d06c5401" d="M143.64391,412.10193a1.89385,1.89385,0,1,0-2.08542-1.88416A1.98687,1.98687,0,0,0,143.643,412.102Z"/>
    <path class="b92447d7-249a-487b-a182-7e90d06c5401" d="M139.24953,414.06723a1.33809,1.33809,0,1,0,1.47413,1.3313A1.40527,1.40527,0,0,0,139.24953,414.06723Z"/>
    <path class="b92447d7-249a-487b-a182-7e90d06c5401" d="M141.55849,421.29324a1.10543,1.10543,0,1,0,1.21931,1.099,1.15933,1.15933,0,0,0-1.21651-1.09915Z"/>
    <path class="b92447d7-249a-487b-a182-7e90d06c5401" d="M145.72287,425.41354a.92764.92764,0,1,0,1.02065.925A.97477.97477,0,0,0,145.72287,425.41354Z"/>
    <path class="b92447d7-249a-487b-a182-7e90d06c5401" d="M136.14349,419.40356a.65565.65565,0,1,0,.71836.65265A.68757.68757,0,0,0,136.14349,419.40356Z"/>
    <path class="b92447d7-249a-487b-a182-7e90d06c5401" d="M143.38261,417.29114a.66472.66472,0,0,0-.60139.72253l.0027.02448a.71167.71167,0,0,0,.82546.54.66064.66064,0,0,0,.59843-.71747l-.0033-.02918A.70656.70656,0,0,0,143.38261,417.29114Z"/>
    <path class="b92447d7-249a-487b-a182-7e90d06c5401" d="M150.0766,409.74026a.667.667,0,0,0-.60729.72181l.00248.02368a.71715.71715,0,0,0,.82513.54437.6667.6667,0,0,0,.60387-.72412l-.00228-.02136A.72074.72074,0,0,0,150.0766,409.74026Z"/>
    <path class="b92447d7-249a-487b-a182-7e90d06c5401" d="M138.49052,411.03012a.66208.66208,0,0,0,.598-.72049l-.00281-.025a.71037.71037,0,0,0-.82227-.54438.6645.6645,0,0,0-.60089.72251l.00252.023A.71548.71548,0,0,0,138.49052,411.03012Z"/>
    <path class="b92447d7-249a-487b-a182-7e90d06c5401" d="M154.89612,419.08713a.97355.97355,0,1,0,1.07416.969,1.02025,1.02025,0,0,0-1.06871-.96933Z"/>
    <path class="b92447d7-249a-487b-a182-7e90d06c5401" d="M146.93573,416.4975a1.105,1.105,0,1,0-1.21286-1.099A1.16388,1.16388,0,0,0,146.93573,416.4975Z"/>
    <path class="b92447d7-249a-487b-a182-7e90d06c5401" d="M148.16118,420.05621a1.84325,1.84325,0,1,0,2.02542,1.83423A1.93594,1.93594,0,0,0,148.16118,420.05621Z"/>
    <path class="b92447d7-249a-487b-a182-7e90d06c5401" d="M154.43,414.53046a1.72545,1.72545,0,1,0-1.88862,1.54513q.08554.00857.17163.00858A1.63931,1.63931,0,0,0,154.43,414.53046Z"/>
    <path class="a32c8c7e-e074-4447-bb10-761e7c107bc9" d="M250.044,386.86792a3.18122,3.18122,0,0,1-.81179.29864c-2.14151.3288-3.36224-1.82357-3.16787-3.90527.19227-2.0805,1.875-4.72586,3.90768-4.10065.49071.14859.64111.78885.64111.78885.695-1.37753,1.7809-2.7839,3.41753-2.71466a3.79138,3.79138,0,0,1,3.56122,4.0083q-.0033.05557-.00821.11106c-.05389.56854-.25571.60278-.53207,1.07321,1.75268.17822,2.21792.659,3.795.68713a.34163.34163,0,0,1,.26269.14417.42581.42581,0,0,1,.05979.32321c-.14472.74524-.44354,2.11005-.65311,2.08618-1.89935-.2088-1.73254-1.69458-3.65378-1.65256a5.22273,5.22273,0,0,1,.15943,1.95468c-.19257,2.08075-1.95264,3.23978-4.09,3.14921A2.92027,2.92027,0,0,1,250.044,386.86792Z"/>
    <path class="a32c8c7e-e074-4447-bb10-761e7c107bc9" d="M308.23285,383.99509a3.1818,3.1818,0,0,1,.32275-.80249c1.192-1.80924,3.60736-1.27164,5.02143.26837,1.41458,1.53766,2.24881,4.55987.42205,5.64865a1.1468,1.1468,0,0,1-1.01513-.05332c.556,1.43924.87121,3.1879-.27753,4.35569a3.79137,3.79137,0,0,1-5.3616-.04566q-.039-.03969-.07688-.08053c-.38565-.42121-.27572-.59391-.43942-1.11435-1.30743,1.18078-1.9761,1.20358-3.05444,2.35473a.34157.34157,0,0,1-.28311.09824.42584.42584,0,0,1-.27988-.17239c-.45587-.60706-1.268-1.7439-1.10977-1.88333,1.42847-1.26914,2.41888-.14908,3.676-1.60264a5.22233,5.22233,0,0,1-1.557-1.19238c-1.41455-1.538-1.09427-3.621.40609-5.146A2.92024,2.92024,0,0,1,308.23285,383.99509Z"/>
    <path class="a32c8c7e-e074-4447-bb10-761e7c107bc9" d="M202.70677,413.63126a3.1819,3.1819,0,0,1,.815-.2898c2.145-.30545,3.34217,1.86011,3.12514,3.93955-.21492,2.07827-1.92642,4.70517-3.95212,4.05786-.48906-.15393-.63249-.79578-.63249-.79578-.70994,1.36987-1.81113,2.76431-3.4469,2.67728a3.79137,3.79137,0,0,1-3.51732-4.04688q.0039-.05553.00942-.111c.06009-.56793.26227-.59994.54375-1.06735-1.75066-.1973-2.21064-.68317-3.78733-.72846a.34151.34151,0,0,1-.26112-.147.42591.42591,0,0,1-.05625-.32385c.15282-.74362.46651-2.1051.6758-2.07892,1.897.22949,1.714,1.71335,3.63556,1.69229a5.22264,5.22264,0,0,1-.13811-1.9563c.21524-2.07852,1.98781-3.21832,4.1241-3.10443A2.92026,2.92026,0,0,1,202.70677,413.63126Z"/>
    <path class="a32c8c7e-e074-4447-bb10-761e7c107bc9" d="M216.62885,374.53647a3.18228,3.18228,0,0,1,.815-.2898c2.145-.30545,3.34216,1.86011,3.12512,3.93958-.21492,2.07828-1.92641,4.70514-3.9521,4.05783-.48908-.15393-.63251-.79578-.63251-.79578-.70993,1.36988-1.81113,2.76432-3.4469,2.67728a3.79136,3.79136,0,0,1-3.5173-4.04691q.00387-.05552.0094-.11093c.06009-.56793.26228-.59994.54374-1.06735-1.75065-.1973-2.21063-.68317-3.78732-.72845a.34155.34155,0,0,1-.26112-.147.42578.42578,0,0,1-.05625-.32385c.15282-.74362.46651-2.1051.6758-2.07892,1.897.22946,1.714,1.71335,3.63556,1.69229a5.22264,5.22264,0,0,1-.13811-1.9563c.21524-2.07852,1.98781-3.21832,4.1241-3.10446A2.92029,2.92029,0,0,1,216.62885,374.53647Z"/>
    <path class="a32c8c7e-e074-4447-bb10-761e7c107bc9" d="M189.4864,368.474a3.18248,3.18248,0,0,1,.815-.2898c2.145-.30545,3.34218,1.86011,3.12513,3.93958-.21492,2.07828-1.92642,4.70517-3.95211,4.05786-.48906-.15393-.6325-.79578-.6325-.79578-.70993,1.36988-1.81112,2.76432-3.4469,2.67728a3.79135,3.79135,0,0,1-3.51731-4.04687q.00388-.05553.00941-.111c.06009-.56793.26227-.59994.54375-1.06735-1.75064-.19729-2.21063-.68316-3.78731-.72845a.34155.34155,0,0,1-.26112-.147.42577.42577,0,0,1-.05625-.32385c.15282-.74362.46651-2.1051.6758-2.07892,1.897.2295,1.714,1.71335,3.63554,1.69229a5.22239,5.22239,0,0,1-.1381-1.95629c.21524-2.07853,1.9878-3.21833,4.12408-3.10444A2.92026,2.92026,0,0,1,189.4864,368.474Z"/>
    <path class="a32c8c7e-e074-4447-bb10-761e7c107bc9" d="M158.03278,391.27707a3.18255,3.18255,0,0,1,.815-.2898c2.145-.30545,3.34216,1.86011,3.12514,3.93958-.21492,2.07828-1.92643,4.70517-3.95212,4.05786-.48906-.15393-.63249-.79578-.63249-.79578-.70995,1.36988-1.81113,2.76432-3.4469,2.67728a3.79137,3.79137,0,0,1-3.51731-4.0469q.00387-.05553.0094-.11094c.06009-.56793.26227-.6.54375-1.06735-1.75066-.19729-2.21063-.68316-3.78732-.72845a.34157.34157,0,0,1-.26113-.147.42581.42581,0,0,1-.05624-.32385c.15282-.74362.46651-2.1051.6758-2.07892,1.897.22946,1.714,1.71335,3.63555,1.69229a5.2228,5.2228,0,0,1-.1381-1.95629c.21524-2.07853,1.98782-3.21833,4.1241-3.10444A2.92028,2.92028,0,0,1,158.03278,391.27707Z"/>
    <path class="a32c8c7e-e074-4447-bb10-761e7c107bc9" d="M151.16154,329.23544a3.18208,3.18208,0,0,1,.815-.28979c2.145-.30545,3.34218,1.86011,3.12513,3.93957-.21492,2.07828-1.92642,4.70517-3.95211,4.05786-.48906-.15393-.6325-.79577-.6325-.79577-.70993,1.36987-1.81112,2.76431-3.44689,2.67727a3.79136,3.79136,0,0,1-3.51731-4.0469q.00387-.05553.0094-.11093c.06009-.56793.26227-.59995.54375-1.06735-1.75066-.1973-2.21063-.68317-3.78732-.72846a.34151.34151,0,0,1-.26113-.147.42577.42577,0,0,1-.05624-.32385c.15281-.74363.4665-2.10511.67579-2.07892,1.897.22949,1.714,1.71335,3.63556,1.69229a5.22238,5.22238,0,0,1-.1381-1.9563c.21524-2.07852,1.9878-3.21832,4.1241-3.10443A2.92025,2.92025,0,0,1,151.16154,329.23544Z"/>
    <path class="a32c8c7e-e074-4447-bb10-761e7c107bc9" d="M103.40531,361.613a3.18217,3.18217,0,0,1,.815-.2898c2.145-.30545,3.34217,1.86011,3.12513,3.93955-.21492,2.07827-1.92642,4.70517-3.95211,4.05786-.48906-.15393-.6325-.79578-.6325-.79578-.70993,1.36987-1.81112,2.76431-3.4469,2.67728a3.79135,3.79135,0,0,1-3.5173-4.04688q.00389-.05557.00941-.111c.06009-.56793.26227-.59994.54374-1.06735-1.75065-.1973-2.21064-.68317-3.78731-.72846a.34153.34153,0,0,1-.26113-.147.42586.42586,0,0,1-.05624-.32385c.15282-.74362.4665-2.1051.67579-2.07892,1.897.22949,1.714,1.71335,3.63556,1.69229a5.22264,5.22264,0,0,1-.13811-1.95627c.21524-2.07852,1.98783-3.21832,4.1241-3.10446A2.92025,2.92025,0,0,1,103.40531,361.613Z"/>
    <path class="a32c8c7e-e074-4447-bb10-761e7c107bc9" d="M223.09676,440.75055a3.18228,3.18228,0,0,1,.815-.2898c2.145-.30545,3.34218,1.86011,3.12514,3.93958-.21492,2.07828-1.92641,4.70517-3.95211,4.05786-.48907-.15393-.6325-.79578-.6325-.79578-.70993,1.36988-1.81113,2.76432-3.4469,2.67728a3.79137,3.79137,0,0,1-3.51731-4.0469q.00387-.05553.0094-.11094c.06009-.56793.26227-.59994.54375-1.06735-1.75066-.19729-2.21063-.68316-3.78732-.72845a.34157.34157,0,0,1-.26113-.147.42581.42581,0,0,1-.05624-.32385c.15282-.74362.46651-2.1051.6758-2.07892,1.897.2295,1.714,1.71335,3.63555,1.69229a5.2228,5.2228,0,0,1-.1381-1.95629c.21524-2.07853,1.98781-3.21833,4.1241-3.10444A2.92024,2.92024,0,0,1,223.09676,440.75055Z"/>
    <path class="a32c8c7e-e074-4447-bb10-761e7c107bc9" d="M248.28307,430.91568a3.18148,3.18148,0,0,1,.85777.11133c2.05025.7005,2.13519,3.17349.99873,4.9284-1.134,1.75483-3.85069,3.31989-5.36256,1.82434a1.14689,1.14689,0,0,1-.20284-.99609c-1.254.899-2.86778,1.6424-4.28621.823a3.79138,3.79138,0,0,1-1.29959-5.20191q.02866-.04774.05869-.0946c.31111-.47891.50583-.41577.96864-.70471-1.47079-.96976-1.66043-1.61139-3.04513-2.36676a.3416.3416,0,0,1-.16607-.24945.42581.42581,0,0,1,.09675-.31415c.47341-.59345,1.3704-1.66464,1.54507-1.54639,1.58662,1.06479.75059,2.30429,2.47279,3.157a5.22255,5.22255,0,0,1,.76407-1.80622c1.13445-1.75491,3.23116-1.96689,5.0835-.8966A2.92028,2.92028,0,0,1,248.28307,430.91568Z"/>
  </g>
</svg>
