<?xml version="1.0" encoding="utf-8"?>
<!-- Generator: Adobe Illustrator 24.0.2, SVG Export Plug-In . SVG Version: 6.00 Build 0)  -->
<svg version="1.1" id="Layer_1" xmlns="http://www.w3.org/2000/svg" xmlns:xlink="http://www.w3.org/1999/xlink" x="0px" y="0px"
	 viewBox="0 0 389.02 500" style="enable-background:new 0 0 389.02 500;" xml:space="preserve">
<style type="text/css">
	.st0{fill-rule:evenodd;clip-rule:evenodd;fill:#C82423;}
	.st1{fill:#C82423;}
</style>
<g>
	<path class="st0" d="M296.12,87.71l-15.32,0.77c-9.32,32.3-25.92,50.43-41.75,69.33l-6.51-1.15c-2.82-9.66-2.56-18.76-6.12-27.74
		c-1.19-2.99-5.08-5.97-6.61-8.95c-11.22-1.79-16.05-1.19-23.65,7.58l-1.27,11.6l6.72,25.14l-20.42,8.31l-1.8-10.97
		c7.26-13.59-2.47-24.39-17.49-24.43c-5.17-0.01-10.3,0.92-15.44,1.38l-0.49-4.52l19.15-4.21l0.38-8.43
		c-20.17-10.34-32.69,3.45-44.43,5.75c-3.57,9.96-3.32,17.62-3.83,26.43l-13.02,5.36l1.53,11.49c32.37,21.5,31.8,45.41,26.05,68.56
		c-9.11,36.68-25.66,72.65-24.13,103.8l23.75,3.45c-0.64,13.92,3.32,22.47,13.02,26.81l0.38-6.51l34.47,5.75l-1.15,6.13
		c14.43-2.68,24.26-0.38,36.39-6.89l8.43-50.18c26.3-20.43,28.86-42.01,29.49-65.88l-20.68-8.43c-6.89-31.28,5.45-53.95,21.83-74.31
		C281.82,137.67,291.91,120.26,296.12,87.71z M284.5,96.54c2.13-0.85,6.83,1.28,6.83,1.28l-2.56,8.11l-4.69,1.28l-2.13-5.97
		C281.94,101.23,282.37,97.39,284.5,96.54z M209.83,141.34c3.67,0.49,5.21,6.6,6.4,9.39l-1.71,3.41c-5.8,0.83-10.59-1.34-11.95-7.68
		C200.93,138.77,203.89,140.54,209.83,141.34z M186.79,191.69l4.69-2.99l3.84-1.28l1.28,19.63l-5.55-5.55l-5.12-6.83L186.79,191.69z
		 M191.91,230.94c-1.33,0.82-3.13,0-4.69,0c-2.7,0-5.5,0.71-8.11,0c-2.28-0.62-4.08-2.42-5.97-3.84c-4.36-3.27-5.39-5.06-5.97-10.67
		c-0.19-1.84-0.51-3.95,0.43-5.55c1.36-2.31,5.94-1.71,8.11-1.71c1,0.57,2.38,0.73,2.99,1.71c0.93,1.49,0.3,3.66,1.28,5.12
		c1.12,1.68,3.14,2.55,4.69,3.84C186.18,221.11,196.59,228.06,191.91,230.94z M179.96,197.66c2.57,3.48,3.98,7.68,5.97,11.52
		c-0.85-0.43-1.9-0.59-2.56-1.28c-2.38-2.49-3.68-5.99-6.4-8.11c-4.08-3.17-4.35-3.95-8.96,0c-2.89,2.48-6.26,3.14-6.83,7.25
		c-0.62,4.5,0.84,13.11-2.56,16.64c-13.96,14.5-26.08-14.06-13.23-18.35c1.76-0.59,3.7,0.28,5.55,0.43
		c0.76-2.27,1.77-5.74-0.43-7.68c-1.53-1.35-4.11-0.46-5.97-1.28c-4.23-1.86-7.12-5.58-8.53-9.81l5.55-0.85
		c4.98-0.14,9.96-0.16,14.93-0.43c5.82-0.31,10.1-2.46,14.93,2.13c1.38,1.31,1.31,3.68,2.56,5.12
		C175.65,194.88,178.46,195.62,179.96,197.66z M147.96,173.77l0.43-4.27h3.41l1.71,2.13l-1.28,5.97l-2.56,0.43L147.96,173.77z
		 M162.9,152.43c2.22-1.59,4.27-3.41,6.4-5.12c0.71,1.85,1.77,3.6,2.13,5.55c0.82,4.44-0.5,9.73-1.28,14.08
		c-1.18,6.61-3.66,6.28-9.39,3.41c-4.44-2.22-7.04-2.98-5.97-8.53C156,155.53,158.35,155.68,162.9,152.43z M143.27,149.87l4.27-2.99
		l8.11,0.85l-1.71,2.13l-5.97,2.99l-2.99,3.84l-1.28,2.56l-5.12-1.71L143.27,149.87z M124.92,135.36l7.25-0.85l-2.56,3.84
		l-4.27,5.12L124.92,135.36z M131.32,183.58l-1.71-9.81l0.43-14.93l6.4,17.92L131.32,183.58z M132.18,252.7
		c0.49-2.94-0.43-10.99,3.84-11.95c8.19-1.83,16.78-1.01,25.17-0.85c14.24,0.27,28.45,1.42,42.67,2.13
		c-1.03,8.21-3.24,9.02-7.25,16.21c-5.96,10.68-5.05,15.66-18.35,19.63c-13.18,3.93-28.05,7.12-41.81,8.11
		c-2.7,0.19-5.62,1.49-8.11,0.43C124.45,284.74,131.42,257.22,132.18,252.7z M120.65,295.37c15.41-0.73,31.84-0.82,46.93-3.84
		c2.13-0.43,4.69,0.43,11.09-4.69c6.4-5.12,17.49-11.52,17.49-11.52c5.69-9.87,10.76-17.87,19.2-25.6l2.56,3.41
		c0,0-3.41,11.09-3.41,13.23c0,2.13-5.55,11.95-7.68,14.08c-10.57,10.57-28.08,18.4-41.81,23.89c-2.13,0.85-18.35,2.13-23.47,2.56
		c-5.12,0.43-21.9-2.06-21.76-3.41C119.94,302.12,120.37,298.07,120.65,295.37z M145.4,356.81l-2.99,6.4l-2.99-7.68l-1.28-6.4
		c0,0,3.84-2.56,2.99-1.28l4.69,1.28L145.4,356.81z M156.07,332.49l-15.79,2.13c0,0-9.81,2.13-13.65,1.71
		c-3.6-0.4-9.07-6.42-9.74-6.82l-0.07,0l0.07,0l12.3,0.42l16.21,0.43l11.95-0.85L156.07,332.49z M238.42,274.89l-3.84,6.83
		l-2.56,11.09l-4.69,4.27l-2.56-2.99c0,0,3.84-8.96,5.55-12.37c1.71-3.41,8.11-13.23,8.11-13.23V274.89z M231.59,258.25
		c0,4.55,1.64,9.41,0,13.65c-7.21,18.7-36.93,44.91-56.75,47.36c-8.92,1.1-17.94,1.21-26.88,2.13c-9.11,0.94-23.97,5.89-32.43,0
		c-1.99-1.38-2.73-6.5-0.43-7.25c7.57-2.48,15.96,0.29,23.89-0.43c31.37-2.85,61.11-6.33,77.23-36.27
		C221.88,266.96,219.66,261.76,231.59,258.25z"/>
	<g>
		<path class="st1" d="M196.49,33.17c0.2-0.14,0.37-0.23,0.51-0.26c0.33-0.07,0.9-0.11,1.7-0.12c1.88-0.01,3.05-0.1,3.51-0.29
			c0.29-0.34,0.45-0.82,0.48-1.45l0.07-1.84l0.38-6.67l0.11-3.15l0.37-6.59l0.25-7.49c0.07-1.79,0-2.8-0.22-3.04
			c-0.33-0.35-1.36-0.6-3.08-0.74c-0.73-0.05-1.38-0.14-1.94-0.26c-0.25-0.14-0.36-0.3-0.35-0.49c0.01-0.14,0.06-0.3,0.17-0.49
			c0.18-0.08,0.34-0.11,0.47-0.11c0.27,0.01,0.6,0.04,0.99,0.08c1.14,0.16,2.31,0.28,3.54,0.34l2.15,0.06l5.11,0.37
			c2.56,0.13,4.55,0.21,5.99,0.24c1.44,0.02,2.41,0.05,2.91,0.07c0.45,0.02,1.55,0.12,3.31,0.28l4.13,0.19l0.49,0.1l2.41,0.05
			l0.28,0.15c0.09,0.15,0.15,0.3,0.18,0.46c-0.01,0.25-0.08,0.62-0.19,1.12c-0.11,0.5-0.18,0.81-0.18,0.94
			c-0.09,1.82-0.11,3.36-0.04,4.62c-0.02,0.1-0.08,0.17-0.18,0.2c-0.21-0.01-0.4-0.05-0.57-0.11c-0.19-0.34-0.45-0.94-0.77-1.8
			c-0.31-0.86-0.8-1.86-1.46-2.99c-0.44-0.76-0.8-1.22-1.06-1.37c-0.27-0.15-0.82-0.25-1.68-0.3c-0.18-0.01-1.05-0.07-2.64-0.19
			c-0.43-0.04-0.84-0.07-1.25-0.09l-8.29-0.28l-0.73-0.04c-1.07-0.06-1.71,0.03-1.94,0.27c-0.35,0.4-0.58,1.63-0.69,3.67
			c-0.01,0.21-0.07,2.31-0.18,6.3l-0.19,3.64c0.21,0.06,0.44,0.1,0.69,0.11l0.49,0.03c0.33,0.02,0.81,0.05,1.45,0.1
			c1,0.09,1.68,0.14,2.03,0.16c0.23,0.01,0.44,0.01,0.61,0.01c2.09,0.04,4.79,0.15,8.08,0.32c1.04-0.1,1.64-0.26,1.83-0.46
			c0.31-0.3,0.57-1.11,0.78-2.43c0.21-1.32,0.58-2.06,1.09-2.2c0.25,0.01,0.48,0.07,0.69,0.17c0.03,0.14,0.05,0.28,0.04,0.4
			c-0.01,0.12-0.04,0.32-0.09,0.6c-0.13,0.64-0.29,2.67-0.46,6.07c-0.05,0.91-0.05,1.93,0,3.05c0.05,1.12,0.07,1.73,0.06,1.82
			c-0.01,0.16-0.05,0.37-0.12,0.63c-0.16,0.06-0.29,0.09-0.38,0.08l-0.2-0.01c-0.28-0.5-0.55-1.28-0.78-2.33
			c-0.41-1.79-0.88-2.93-1.41-3.4c-0.53-0.47-1.41-0.75-2.65-0.81c-0.27-0.02-0.76-0.03-1.48-0.04c-0.72-0.01-1.79-0.05-3.2-0.13
			l-1.89-0.1c-2.69-0.14-4.46-0.18-5.3-0.12l-0.08,0.86l-0.22,4.83l-0.19,3.04l-0.13,2.97c-0.07,1.79,0,2.83,0.21,3.12
			c0.31,0.4,1.02,0.63,2.12,0.69l1.77,0.07c0.15,0.01,0.76,0.05,1.81,0.13c1.05,0.08,2.35,0.16,3.9,0.24
			c3.74,0.2,6.24,0.18,7.49-0.04c1.25-0.22,2.3-0.68,3.14-1.38c0.84-0.7,1.94-2.23,3.29-4.6c0.41-0.7,0.79-1.04,1.16-1.02
			c0.18,0.01,0.37,0.09,0.57,0.24c-0.65,1.7-1.03,2.82-1.14,3.36c-0.28,1.21-0.47,2.46-0.57,3.73c-0.03,0.58-0.21,1.05-0.54,1.42
			l-0.64-0.03l-8.17-0.35l-3.66-0.22l-8.72-0.35l-3.54-0.19c-0.45-0.02-0.86-0.04-1.25-0.04c-3.49-0.04-6.06-0.11-7.71-0.19
			c-0.29-0.02-0.49-0.07-0.59-0.16c-0.1-0.09-0.15-0.22-0.14-0.39L196.49,33.17z"/>
	</g>
	<g>
		<path class="st1" d="M235.89,34.06c2.83,0.2,4.43,0.27,4.81,0.21c0.26-0.04,0.53-0.26,0.82-0.66l0.05-0.28
			c0.08-0.43,0.43-1.98,1.05-4.63c0.17-0.75,0.32-1.49,0.45-2.21l0.46-3.09l0.67-3.48l1.12-6.49l0.85-4.64
			c0.37-1.96,0.41-3.19,0.13-3.68c-0.28-0.49-1.13-0.96-2.57-1.4c-1.44-0.44-2.23-0.72-2.36-0.83c-0.14-0.11-0.19-0.27-0.16-0.45
			c0.02-0.12,0.08-0.27,0.17-0.45c0.22-0.12,0.67-0.13,1.36-0.03c0.1,0.02,0.36,0.04,0.8,0.07c0.44,0.03,0.85,0.08,1.23,0.15
			l2.35,0.41l7.55,1.25c4.26,0.75,7.19,1.56,8.8,2.43c1.61,0.87,2.8,2.07,3.58,3.6c0.78,1.53,1.02,3.13,0.72,4.8
			c-0.56,3.17-2.83,5.27-6.81,6.29c-0.68,0.18-1.22,0.35-1.63,0.51c0.43,1.35,1.07,3,1.93,4.95l2.64,6.27
			c1.09,2.33,1.86,3.8,2.32,4.43c0.46,0.62,1.06,1.18,1.79,1.66c0.73,0.49,2.01,1.05,3.83,1.69c-0.01,0.18-0.03,0.31-0.05,0.42
			c-0.02,0.1-0.05,0.23-0.1,0.38c-2.62-0.43-5.69-0.95-9.21-1.57c-0.25-0.04-0.59-0.12-1.02-0.23c-0.94-2.59-2.08-5.45-3.42-8.59
			l-3.01-7.74c-0.45-0.83-0.84-1.36-1.18-1.61c-0.34-0.25-0.82-0.42-1.43-0.53l-2.44-0.4l-0.8-0.17c-0.15,0.54-0.38,1.66-0.68,3.37
			l-1.56,8.84c-0.08,0.32-0.08,0.79-0.01,1.41c0.09,0.35,0.31,0.66,0.65,0.93c0.34,0.26,1.36,0.75,3.06,1.46l1.13,0.47
			c0.12,0.2,0.16,0.44,0.11,0.74c-0.53,0-0.9-0.02-1.11-0.06c-1.72-0.3-2.93-0.53-3.62-0.69c-0.36-0.08-0.66-0.14-0.88-0.18
			l-3.9-0.63l-3.8-0.7c-0.17-0.03-1.04-0.16-2.62-0.38l-0.55-0.21l-0.01-0.27C235.42,34.38,235.59,34.22,235.89,34.06z M249.5,19.03
			c0.51,0.11,0.89,0.18,1.14,0.23c1.37,0.24,2.99,0.37,4.83,0.4c1.3,0,2.38-0.19,3.26-0.56s1.66-1.01,2.36-1.91
			c0.7-0.9,1.15-1.89,1.33-2.96c0.21-1.17,0.01-2.48-0.57-3.93c-0.46-1.11-1.37-2.13-2.75-3.06c-1.38-0.94-3.12-1.59-5.23-1.96
			c-0.52-0.09-1.19-0.18-2.02-0.28c-0.23,0.88-0.39,1.56-0.48,2.04l-0.71,4.85l-0.38,1.98C250.06,15.22,249.79,16.93,249.5,19.03z"
			/>
	</g>
	<g>
		<path class="st1" d="M158.07,35.85l-0.09-0.65c1.25-1.34,2.06-2.28,2.42-2.81c0.11-0.16,0.44-0.58,1.01-1.26l1.52-2.16L173.37,15
			l9.01-12.06c0.12-0.2,0.26-0.42,0.4-0.65c-0.7,0.01-1.28,0.02-1.76,0.05c-0.5,0.03-1.14,0.07-1.9,0.14
			c-0.76,0.06-2.84,0.21-6.23,0.44c-0.14,0.01-0.76,0.09-1.87,0.24c-1.11,0.15-2.6,0.32-4.47,0.51c-1.87,0.19-3.24,0.48-4.09,0.87
			c-0.46,0.22-0.98,0.63-1.57,1.24c-0.76,0.79-1.36,1.57-1.8,2.33c-0.59,1.01-1.07,1.64-1.44,1.89l-0.49,0.08
			c0.04-0.35,0.21-0.93,0.52-1.75c0.31-0.81,0.72-2.27,1.23-4.36c0.39-1.14,0.66-1.98,0.81-2.51c0.15-0.53,0.31-0.97,0.46-1.31
			c0.21-0.06,0.39-0.1,0.54-0.11L161.09,0c-0.13,0.48-0.19,0.82-0.18,1.01c0.03,0.54,0.29,0.94,0.8,1.21
			c0.5,0.26,1.8,0.34,3.88,0.23c0.87-0.05,1.75-0.14,2.64-0.27c0.35-0.05,1.19-0.14,2.52-0.26l1.57-0.08l6.79-0.52l6.03-0.51
			l2.9-0.24c0.36-0.02,0.74,0.02,1.14,0.12l0.07,0.18c0.02,0.28-0.67,1.27-2.06,2.97c-0.73,0.88-1.18,1.44-1.34,1.67l-5.09,6.84
			c-0.76,1.04-1.35,1.82-1.77,2.35c-0.24,0.29-0.96,1.22-2.15,2.79l-3.95,5.23l-5.5,7.31c-1.28,1.64-2.13,2.79-2.56,3.45
			c-0.09,0.11-0.2,0.26-0.33,0.46l11.31-0.51c1.68-0.07,3.03-0.13,4.04-0.19c3.74-0.2,6.33-0.85,7.79-1.97
			c1.46-1.12,2.41-2.91,2.87-5.37c0.11-0.55,0.19-0.97,0.25-1.25c0.21-0.19,0.44-0.29,0.71-0.3l0.12,0.07
			c0.06,0.38,0.1,0.73,0.11,1.04c0.05,0.87,0.08,2.07,0.1,3.6l0.01,1.79l0.15,1.62c0.02,0.47,0,0.92-0.08,1.34
			c-0.69,0.09-1.12,0.14-1.27,0.15c-0.8,0.01-1.47,0.03-2.01,0.05l-7.49,0.5l-9.22,0.3l-4.76,0.33c-0.16,0.01-0.75,0.01-1.78,0.01
			c-0.54-0.01-0.97,0-1.28,0.01c-1.05,0.05-2.46,0.24-4.25,0.57c-0.62,0.1-0.98,0.16-1.1,0.16
			C158.56,35.9,158.34,35.89,158.07,35.85z"/>
	</g>
	<g>
		<path class="st1" d="M119.57,42.03l-0.17-0.64c1.08-1.49,1.76-2.51,2.06-3.08c0.09-0.18,0.37-0.63,0.85-1.38l1.25-2.33l8.67-15.15
			l7.47-13.07c0.1-0.21,0.21-0.44,0.32-0.7c-0.69,0.09-1.27,0.18-1.75,0.26c-0.5,0.09-1.12,0.21-1.87,0.37
			c-0.75,0.16-2.79,0.55-6.13,1.19c-0.13,0.02-0.74,0.18-1.82,0.47c-1.08,0.29-2.54,0.64-4.38,1.05c-1.84,0.41-3.16,0.87-3.95,1.36
			c-0.43,0.27-0.89,0.74-1.41,1.42c-0.65,0.88-1.15,1.72-1.5,2.53c-0.46,1.08-0.86,1.76-1.21,2.05l-0.48,0.14
			c0-0.36,0.1-0.96,0.3-1.8c0.21-0.84,0.44-2.34,0.69-4.48c0.24-1.18,0.41-2.05,0.5-2.59c0.09-0.55,0.19-1,0.3-1.36
			c0.2-0.09,0.37-0.15,0.52-0.17l0.37-0.07c-0.07,0.49-0.09,0.83-0.05,1.02c0.09,0.53,0.4,0.9,0.94,1.1
			c0.53,0.2,1.82,0.12,3.88-0.24c0.86-0.15,1.72-0.35,2.58-0.59c0.34-0.09,1.16-0.28,2.47-0.57l1.55-0.27l6.68-1.34l5.93-1.24
			l2.85-0.6c0.35-0.06,0.74-0.07,1.15-0.02l0.09,0.17c0.05,0.28-0.51,1.34-1.68,3.2c-0.62,0.96-0.99,1.57-1.13,1.82l-4.22,7.41
			c-0.63,1.12-1.12,1.97-1.47,2.55c-0.2,0.32-0.8,1.33-1.8,3.03l-3.28,5.67l-4.57,7.92c-1.06,1.79-1.77,3.03-2.12,3.73
			c-0.08,0.12-0.17,0.29-0.27,0.5l11.16-1.89c1.67-0.28,2.99-0.5,3.99-0.68c3.69-0.65,6.18-1.62,7.49-2.91
			c1.31-1.29,2.04-3.18,2.19-5.68c0.04-0.56,0.07-0.98,0.1-1.27c0.18-0.21,0.4-0.34,0.67-0.38l0.13,0.06
			c0.11,0.37,0.18,0.71,0.24,1.02c0.15,0.86,0.33,2.05,0.54,3.56l0.22,1.77l0.34,1.59c0.08,0.47,0.11,0.91,0.09,1.34
			c-0.68,0.17-1.09,0.27-1.25,0.3c-0.79,0.1-1.45,0.2-1.99,0.3l-7.37,1.41l-9.11,1.42l-4.68,0.91c-0.15,0.03-0.74,0.1-1.76,0.23
			c-0.54,0.06-0.96,0.12-1.27,0.17c-1.03,0.18-2.41,0.54-4.15,1.08c-0.6,0.18-0.96,0.28-1.07,0.29
			C120.06,42.03,119.84,42.04,119.57,42.03z"/>
	</g>
	<g>
		<path class="st1" d="M272.18,41.59c0.45-0.05,0.9-0.04,1.34,0.04c2.92,0.55,4.65,0.65,5.17,0.3c0.53-0.35,1.28-2.48,2.25-6.38
			l0.64-2.68l0.7-2.8l0.66-3.11l0.51-1.8l0.47-1.99l0.58-2.35l0.21-1.06l0.39-1.31c0.09-0.3,0.2-0.66,0.3-1.06
			c0.27-1.07,0.49-2.22,0.67-3.43c-0.02-0.26-0.06-0.51-0.14-0.77c-0.62-0.5-1.68-0.99-3.21-1.49c-1.52-0.5-2.38-0.84-2.55-1.03
			c-0.12-0.14-0.14-0.42-0.06-0.85l2.38,0.59l7.45,2.02c1.92,0.48,4.5,1.07,7.73,1.76c-0.07,0.27-0.15,0.52-0.25,0.75
			c-0.4-0.01-1.05-0.07-1.96-0.19c-1.83-0.26-2.97-0.35-3.41-0.28c-0.26,0.02-0.48,0.12-0.64,0.3c-0.26,0.26-0.52,0.8-0.76,1.62
			l-0.96,3.25l-2.71,11.37l-1.12,4.48c-0.39,1.4-0.65,2.36-0.78,2.87c-0.47,1.9-0.72,3.13-0.75,3.68c-0.03,0.55,0.06,0.97,0.25,1.27
			c0.2,0.29,0.57,0.58,1.12,0.86c0.82,0.4,1.47,0.67,1.96,0.81c1.05,0.3,1.68,0.6,1.9,0.91c0,0.24-0.02,0.43-0.06,0.58l-0.05,0.2
			c-1.73-0.37-3-0.66-3.81-0.87c-0.47-0.12-1.3-0.35-2.5-0.7l-3.92-0.92l-6.64-1.68l-0.54-0.13L272.18,41.59z"/>
	</g>
	<g>
		<path class="st1" d="M290.88,46.42c0.3-0.03,0.55-0.01,0.75,0.06l0.63,0.24c0.12,0.05,0.34,0.12,0.66,0.23
			c1.44,0.42,2.31,0.62,2.6,0.61c0.75-0.07,1.5-0.4,2.25-0.99c1.58-1.31,3.55-3.26,5.9-5.86c1.12-1.24,1.81-1.98,2.08-2.24
			c0.83-0.81,1.66-1.67,2.49-2.59l5.03-5.46c0.79-0.86,2.64-2.81,5.55-5.85c0.73-0.77,1.67-1.82,2.8-3.14l0.82,0.26l0.94,0.39
			c0.24,1.69,0.36,3.45,0.34,5.28c0,0.97,0.05,2.44,0.14,4.41l0.26,11.65l0.1,6.31c-0.03,3.55,0,5.75,0.08,6.6
			c0.09,0.85,0.24,1.45,0.46,1.79c0.07,0.1,0.37,0.33,0.91,0.69c0.54,0.36,0.91,0.61,1.12,0.77c0.75,0.53,1.26,0.93,1.53,1.21
			c0,0.21-0.02,0.36-0.05,0.46c-0.03,0.08-0.11,0.2-0.22,0.34c-0.59-0.21-1-0.35-1.23-0.44c-0.92-0.35-2.54-1-4.86-1.95l-2.7-1.1
			l-3.3-1.23c-0.22-0.08-0.44-0.18-0.66-0.28c-0.22-0.11-0.41-0.19-0.57-0.25l-0.6-0.23c-0.19-0.09-0.35-0.21-0.49-0.36
			c0.09-0.23,0.22-0.43,0.39-0.61c0.25-0.02,0.47,0,0.66,0.06l2.92,0.92c0.75,0.25,1.35,0.38,1.79,0.38
			c0.22-0.25,0.36-0.45,0.42-0.6c0.11-0.3,0.17-1.15,0.17-2.56c-0.01-0.94,0-1.83,0.04-2.66c0.04-0.83,0.01-3.62-0.1-8.38
			c-0.7-0.4-1.33-0.71-1.89-0.92l-5.83-2.18l-1.7-0.68c-0.62-0.24-1.31-0.46-2.08-0.66c-0.43,0.4-0.72,0.69-0.87,0.88l-4.98,5.82
			c-2,2.18-3.05,3.39-3.15,3.65c-0.06,0.15-0.07,0.42-0.04,0.83c0.34,0.24,0.81,0.53,1.42,0.85l3.58,1.71
			c0.15,0.22,0.19,0.39,0.15,0.51c-0.03,0.08-0.11,0.19-0.22,0.34c-0.82-0.29-1.45-0.53-1.88-0.69c-1.45-0.56-3.12-1.24-5.01-2.06
			c-0.87-0.37-1.5-0.63-1.88-0.78c-0.38-0.15-1.05-0.38-2-0.71c-0.63-0.2-1.08-0.36-1.35-0.46c-0.43-0.17-0.99-0.41-1.66-0.72
			l0.06-0.15C290.63,46.74,290.73,46.59,290.88,46.42z M309.48,36.7c1.9,0.84,4.09,1.74,6.57,2.69c1.41,0.54,2.67,0.98,3.77,1.31
			c0.06-0.7,0.08-1.38,0.06-2.03c-0.08-3.29-0.13-5.11-0.15-5.45l-0.29-6.61l-0.11-0.54c-0.18,0.15-0.9,0.84-2.16,2.06
			c-2.14,2.1-3.73,3.77-4.79,4.99c-0.48,0.54-0.97,1.08-1.46,1.62c-0.5,0.53-0.82,0.91-0.98,1.14c-0.17,0.23-0.36,0.45-0.58,0.66
			L309.48,36.7z"/>
	</g>
	<g>
		<path class="st1" d="M98.5,47.43c0.38-0.26,0.78-0.45,1.2-0.6c2.84-0.89,4.41-1.61,4.71-2.16c0.3-0.55-0.03-2.78-1.01-6.69
			l-0.7-2.67l-0.7-2.8l-0.88-3.06l-0.39-1.82l-0.52-1.98l-0.59-2.34l-0.32-1.03l-0.27-1.34c-0.06-0.31-0.14-0.67-0.24-1.08
			c-0.27-1.07-0.6-2.19-1.02-3.35c-0.13-0.22-0.3-0.42-0.48-0.61c-0.78-0.15-1.95-0.08-3.53,0.19c-1.58,0.28-2.49,0.37-2.73,0.29
			c-0.18-0.06-0.33-0.31-0.45-0.73l2.38-0.59l7.53-1.72c1.92-0.48,4.47-1.17,7.65-2.07c0.07,0.27,0.11,0.53,0.13,0.78
			c-0.36,0.18-0.96,0.43-1.82,0.75c-1.74,0.63-2.79,1.08-3.14,1.35c-0.22,0.15-0.37,0.33-0.43,0.57c-0.11,0.35-0.08,0.95,0.09,1.79
			l0.68,3.32l2.94,11.31l1.12,4.49c0.31,1.42,0.53,2.39,0.66,2.89c0.47,1.9,0.83,3.11,1.06,3.61c0.23,0.5,0.51,0.83,0.82,1
			c0.31,0.16,0.77,0.24,1.39,0.23c0.91-0.03,1.62-0.1,2.11-0.2c1.06-0.23,1.76-0.26,2.11-0.09c0.11,0.21,0.19,0.39,0.22,0.54
			l0.05,0.2c-1.7,0.48-2.96,0.82-3.77,1.02c-0.47,0.12-1.32,0.3-2.54,0.55l-3.89,1.02l-6.65,1.63l-0.54,0.13L98.5,47.43z"/>
	</g>
	<g>
		<path class="st1" d="M55.55,29.72c0.31-0.18,0.5-0.28,0.6-0.31c0.61-0.24,1.64-0.59,3.08-1.07c0.75-0.27,1.26-0.45,1.53-0.56
			c0.4-0.15,1.23-0.51,2.49-1.07l4.52-2.02c1.18-0.56,2.57-1.16,4.18-1.77c2.84-1.09,5.25-1.6,7.21-1.52
			c1.96,0.08,3.7,0.72,5.21,1.92c1.51,1.2,2.56,2.56,3.15,4.1c0.98,2.56,0.83,5.16-0.44,7.78c-1.28,2.63-3.6,4.58-6.97,5.88
			c-0.94,0.36-1.76,0.58-2.46,0.65c-0.7,0.07-1.55,0.02-2.55-0.16c-0.43-0.08-0.72-0.22-0.88-0.42c0.03-0.14,0.1-0.26,0.21-0.36
			c0.25-0.1,0.53-0.15,0.84-0.16c0.69-0.04,1.51-0.24,2.45-0.6c1.43-0.55,2.66-1.39,3.69-2.51c1.03-1.13,1.65-2.4,1.85-3.83
			c0.2-1.42,0.05-2.79-0.45-4.1c-0.49-1.27-1.31-2.38-2.45-3.31c-1.15-0.94-2.42-1.55-3.82-1.83c-0.79-0.17-1.89-0.13-3.31,0.09
			c-1.42,0.23-2.49,0.48-3.21,0.76c-2.24,0.86-3.51,1.52-3.81,1.97l0.1,0.35l1.14,2.74l0.16,0.5c0.13,0.45,0.37,1.14,0.73,2.05
			c1.28,3.33,2.13,5.38,2.55,6.16l0.53,1.37l4.65,11.05c0.06,0.16,0.16,0.48,0.28,0.93c0.12,0.46,0.25,0.85,0.37,1.18
			c0.3,0.78,0.6,1.35,0.9,1.7c0.48-0.05,1.85-0.27,4.11-0.65c1.06-0.16,1.64-0.25,1.74-0.25c0.16-0.01,0.33,0.05,0.5,0.17
			c0.02,0.27-0.01,0.47-0.1,0.59c-0.09,0.12-0.31,0.24-0.65,0.37c-0.22,0.08-0.74,0.24-1.57,0.46c-1.61,0.45-2.87,0.85-3.75,1.19
			l-4.71,2.01l-2.88,1.02c-0.18,0.07-0.7,0.29-1.56,0.65l-0.27-0.63l3.3-1.97c0.52-0.37,0.82-0.65,0.89-0.85
			c0.09-0.3,0.01-0.78-0.24-1.45c-0.06-0.15-0.17-0.47-0.34-0.97c-0.11-0.35-0.29-0.83-0.52-1.43c-0.74-1.93-2.41-6-5-12.21
			c-1.2-2.91-2.38-5.88-3.55-8.92l-0.16-0.42c-0.45-1.18-0.94-1.84-1.45-2c-0.88-0.28-2.72-0.08-5.53,0.61
			c-0.16-0.15-0.26-0.27-0.31-0.39C55.52,30.12,55.51,29.95,55.55,29.72z"/>
	</g>
	<g>
		<path class="st1" d="M0.42,442.02c0.21-0.15,0.41-0.18,0.62-0.09c2.1,0.89,3.87,1.37,5.31,1.45c0.59-0.15,1.1-0.64,1.55-1.47
			l1.52-2.93l2.95-5.55l1.34-2.38l4.23-8.38l3.02-5.55c1.67-3.14,2.73-5.27,3.17-6.39c0.17-0.42,0.26-0.89,0.26-1.43
			c-0.24-0.41-0.47-0.7-0.69-0.86c-0.78-0.6-1.82-1.29-3.13-2.09c-0.17-0.35-0.19-0.66-0.04-0.94c0.05-0.1,0.17-0.23,0.36-0.38
			c1.13,0.52,3.08,1.53,5.86,3c1.29,0.69,2.32,1.22,3.07,1.59c1.1,0.51,2.43,1.1,4,1.79c0.62,0.41,1.38,0.85,2.28,1.33
			c0.15,0.24,0.19,0.43,0.11,0.59c-0.06,0.12-0.15,0.24-0.27,0.36c-0.3-0.01-0.8-0.15-1.5-0.42c-1.82-0.74-3.2-0.98-4.12-0.73
			c-0.63,0.17-1.24,0.82-1.83,1.93l-0.27,0.58l-5.96,11.21l-4.11,7.72l-3.87,7.78c-1.27,2.43-1.92,3.8-1.95,4.1
			c-0.03,0.3,0.02,0.58,0.17,0.84c0.47,0.79,1.39,1.63,2.75,2.53c0.34,0.23,0.65,0.48,0.93,0.76c-0.02,0.32-0.08,0.57-0.17,0.75
			c-0.11,0.2-0.33,0.32-0.66,0.38l-0.97-0.48c-0.4-0.21-1.31-0.79-2.75-1.73c-1.44-0.95-2.52-1.61-3.26-2
			c-0.62-0.33-1.51-0.72-2.68-1.16s-2.69-1.16-4.58-2.17c-0.28-0.15-0.65-0.36-1.12-0.63L0.42,442.02z M21.89,429.4
			c0.35-0.09,0.9-0.16,1.63-0.2c1.47-0.08,4.11-0.41,7.91-0.99l11.72-2.33c3.24-0.67,5.6-1.3,7.08-1.89
			c0.31-0.14,0.58-0.32,0.81-0.52c-0.22-0.45-0.53-0.85-0.92-1.21c-0.39-0.37-1.07-0.84-2.03-1.43c-0.96-0.59-1.5-1-1.62-1.23
			c-0.12-0.23-0.13-0.44-0.02-0.64c0.12-0.22,0.28-0.35,0.48-0.4c0.35-0.04,0.77,0.06,1.25,0.32c0.76,0.4,1.38,0.81,1.88,1.21
			c0.5,0.4,1.73,1.13,3.7,2.18c0.48,0.25,0.83,0.43,1.06,0.52l4.78,2.23c0.5,0.21,0.88,0.39,1.13,0.53
			c0.24,0.13,0.59,0.34,1.04,0.63c-0.25,0.46-0.49,0.82-0.72,1.07c-2.28-0.88-4.04-1.39-5.26-1.53c-0.7-0.07-2.23-0.03-4.57,0.1
			c-1.77,0.11-3.45,0.34-5.04,0.7l-11.13,2.38l-6.65,1.28c0.01,0.18,0.05,0.38,0.14,0.61c0.07,0.16,0.22,0.6,0.45,1.31
			c1.05,3.06,2.6,6.94,4.64,11.66c2.04,4.72,3.56,8.56,4.55,11.54c1.45,4.36,3.4,7.38,5.85,9.06c0.59,0.41,0.96,0.84,1.08,1.27
			l-0.14,0.34l-0.28,0.38c-0.7-0.32-1.17-0.54-1.4-0.67c-0.92-0.49-2.26-1.29-4.04-2.4c-1.05-0.65-1.94-1.17-2.66-1.55
			c-2.86-1.52-6.2-3.14-10-4.86c0.08-0.3,0.16-0.52,0.23-0.66l0.15-0.21c0.38-0.1,1.01-0.04,1.9,0.17c1.22,0.29,2.44,0.73,3.66,1.32
			c0.26,0.14,0.55,0.26,0.87,0.38c-0.03-0.43-0.16-0.98-0.39-1.64c-0.04-0.12-0.16-0.53-0.39-1.22c-0.22-0.69-0.64-1.85-1.25-3.47
			l-2.04-4.72l-3.02-7.49C25.32,436.84,23.85,433.53,21.89,429.4z"/>
	</g>
	<g>
		<path class="st1" d="M343.97,445.72c-1.04-2.05-1.73-3.99-2.05-5.84c-0.32-1.85-0.38-4-0.16-6.45c0.21-2.46,0.82-4.73,1.83-6.83
			c1.01-2.09,2.72-4.36,5.13-6.8c1.71-1.7,4.13-3.35,7.26-4.95c2.11-1.07,4.31-1.84,6.62-2.31c2.3-0.47,4.53-0.62,6.68-0.45
			c2.16,0.17,4.59,0.87,7.3,2.12c1.88,0.86,3.53,1.98,4.96,3.35c1.88,1.8,3.41,3.86,4.6,6.19c1.35,2.65,2.21,4.97,2.59,6.98
			c0.38,2,0.4,4.17,0.06,6.48c-0.27,1.8-1.1,4.15-2.51,7.04c-0.93,1.94-2.35,3.84-4.25,5.71c-1.9,1.87-4.17,3.47-6.8,4.81
			c-2.67,1.36-5.2,2.26-7.61,2.7c-2.4,0.44-4.53,0.57-6.38,0.39s-3.96-0.77-6.32-1.76c-2.36-0.99-4.46-2.35-6.3-4.07
			S345.24,448.2,343.97,445.72z M374.39,453.79c1.68-0.86,3.32-1.99,4.89-3.38c1.58-1.4,2.79-3,3.63-4.81
			c0.85-1.81,1.31-3.61,1.39-5.41c0.08-1.8-0.19-3.91-0.83-6.34c-0.63-2.43-1.5-4.74-2.62-6.93c-1.39-2.73-3.16-5.22-5.33-7.48
			c-1.65-1.71-3.59-3-5.81-3.88c-2.21-0.88-4.54-1.25-6.97-1.11c-2.43,0.14-4.77,0.78-7.02,1.93c-1.82,0.93-3.45,2.14-4.89,3.63
			c-1.44,1.49-2.48,2.99-3.13,4.49c-0.65,1.51-1.02,3.36-1.1,5.57c-0.09,2.21,0.14,4.47,0.69,6.79c0.55,2.32,1.23,4.27,2.04,5.86
			c0.85,1.66,2.06,3.42,3.63,5.27c1.57,1.85,3.19,3.33,4.85,4.43c1.66,1.1,3.43,1.92,5.31,2.47c1.88,0.54,3.77,0.73,5.68,0.55
			C370.72,455.26,372.58,454.71,374.39,453.79z"/>
	</g>
	<g>
		<path class="st1" d="M50.6,468.7c0.36-0.07,0.65-0.07,0.89,0l0.74,0.24c0.15,0.05,0.41,0.12,0.78,0.22
			c1.7,0.39,2.72,0.55,3.07,0.5c0.88-0.16,1.75-0.66,2.61-1.49c1.82-1.82,4.08-4.51,6.77-8.06c1.28-1.69,2.08-2.71,2.38-3.06
			c0.95-1.11,1.91-2.29,2.86-3.55l5.76-7.46c0.9-1.18,3.02-3.85,6.37-8.01c0.84-1.05,1.91-2.48,3.2-4.29l0.97,0.24l1.11,0.4
			c0.33,2.12,0.51,4.34,0.53,6.67c0.02,1.24,0.11,3.1,0.28,5.59l0.59,14.78l0.27,8.01c0.05,4.51,0.13,7.3,0.26,8.37
			c0.13,1.07,0.32,1.81,0.59,2.23c0.08,0.12,0.44,0.38,1.08,0.78c0.64,0.4,1.09,0.68,1.34,0.86c0.89,0.6,1.5,1.06,1.83,1.38
			c0.01,0.26-0.01,0.46-0.05,0.59c-0.03,0.11-0.12,0.26-0.25,0.45c-0.69-0.2-1.18-0.35-1.46-0.44c-1.09-0.36-3.01-1.01-5.75-1.97
			l-3.19-1.12l-3.9-1.21c-0.26-0.08-0.52-0.18-0.78-0.29c-0.26-0.11-0.49-0.2-0.68-0.26l-0.71-0.23c-0.23-0.1-0.42-0.23-0.58-0.4
			c0.1-0.3,0.24-0.57,0.44-0.81c0.3-0.05,0.56-0.04,0.78,0l3.44,0.87c0.89,0.24,1.59,0.34,2.11,0.29c0.25-0.34,0.41-0.61,0.47-0.81
			c0.13-0.39,0.17-1.47,0.14-3.26c-0.04-1.2-0.04-2.33-0.02-3.38c0.02-1.06-0.08-4.6-0.32-10.63c-0.83-0.43-1.58-0.76-2.24-0.98
			l-6.89-2.17l-2.01-0.69c-0.73-0.24-1.55-0.44-2.46-0.62c-0.49,0.55-0.82,0.95-0.99,1.2l-5.7,7.91c-2.29,2.97-3.49,4.63-3.6,4.97
			c-0.06,0.19-0.07,0.54-0.02,1.06c0.41,0.28,0.97,0.59,1.68,0.94l4.24,1.8c0.17,0.27,0.24,0.48,0.19,0.63
			c-0.04,0.11-0.12,0.26-0.25,0.45c-0.97-0.29-1.71-0.52-2.23-0.69c-1.71-0.56-3.69-1.25-5.92-2.1c-1.03-0.38-1.78-0.65-2.23-0.79
			c-0.45-0.15-1.24-0.38-2.37-0.7c-0.74-0.19-1.27-0.34-1.59-0.45c-0.51-0.17-1.17-0.42-1.96-0.74l0.06-0.19
			C50.32,469.12,50.43,468.93,50.6,468.7z M72.18,454.41c2.25,0.87,4.84,1.79,7.77,2.74c1.67,0.54,3.15,0.97,4.45,1.27
			c0.06-0.9,0.06-1.77,0.02-2.58c-0.18-4.18-0.28-6.48-0.31-6.91l-0.51-8.36l-0.13-0.68c-0.21,0.21-1.04,1.17-2.49,2.85
			c-2.46,2.89-4.29,5.17-5.49,6.84c-0.55,0.74-1.11,1.48-1.68,2.2c-0.57,0.73-0.94,1.25-1.12,1.55c-0.18,0.31-0.41,0.61-0.67,0.9
			L72.18,454.41z"/>
	</g>
	<g>
		<path class="st1" d="M306.5,484.16c2.99-1.38,4.67-2.2,5.02-2.48c0.24-0.2,0.39-0.6,0.45-1.21l-0.11-0.35
			c-0.17-0.53-0.72-2.5-1.63-5.89c-0.26-0.95-0.54-1.88-0.83-2.78l-1.34-3.79l-1.34-4.35l-2.64-8.05l-1.85-5.78
			c-0.77-2.45-1.44-3.87-2.01-4.28c-0.57-0.4-1.72-0.45-3.44-0.14c-1.72,0.31-2.69,0.44-2.89,0.39c-0.21-0.05-0.35-0.19-0.42-0.43
			c-0.05-0.15-0.08-0.35-0.09-0.61c0.15-0.26,0.61-0.53,1.38-0.8c0.11-0.03,0.39-0.16,0.86-0.37c0.47-0.21,0.91-0.38,1.34-0.52
			l2.63-0.86l8.41-2.84c4.78-1.55,8.23-2.28,10.38-2.2c2.14,0.08,4.06,0.78,5.74,2.09c1.68,1.31,2.86,3.01,3.53,5.08
			c1.28,3.94,0.19,7.62-3.26,11.04c-0.59,0.59-1.04,1.1-1.36,1.51c1.23,1.3,2.84,2.83,4.85,4.56l6.34,5.67
			c2.46,2.05,4.11,3.29,4.95,3.74c0.83,0.45,1.76,0.75,2.79,0.89c1.03,0.14,2.65,0.06,4.88-0.23c0.09,0.21,0.16,0.37,0.2,0.5
			s0.08,0.29,0.13,0.49c-2.92,0.99-6.35,2.13-10.29,3.41c-0.28,0.09-0.67,0.19-1.18,0.31c-2.47-2.42-5.29-5.05-8.49-7.88l-7.58-7.14
			c-0.93-0.69-1.65-1.08-2.14-1.17c-0.49-0.09-1.08-0.02-1.76,0.2l-2.72,0.92l-0.91,0.26c0.16,0.71,0.58,2.12,1.27,4.24l3.57,10.98
			c0.11,0.41,0.38,0.95,0.81,1.62c0.3,0.35,0.7,0.58,1.2,0.69c0.5,0.11,1.82,0.09,3.97-0.07l1.42-0.11
			c0.24,0.16,0.42,0.42,0.54,0.78c-0.55,0.3-0.93,0.48-1.17,0.56c-1.93,0.63-3.29,1.04-4.09,1.26c-0.41,0.11-0.75,0.21-1.01,0.29
			l-4.34,1.48l-4.27,1.35c-0.19,0.06-1.15,0.41-2.88,1.04l-0.68,0.08l-0.17-0.3C306.21,484.78,306.28,484.51,306.5,484.16z
			 M311.59,459.28c0.59-0.17,1.02-0.3,1.29-0.39c1.54-0.5,3.26-1.26,5.15-2.28c1.32-0.74,2.32-1.56,2.99-2.48
			c0.67-0.91,1.1-2.09,1.29-3.52c0.19-1.43,0.06-2.81-0.37-4.13c-0.47-1.45-1.43-2.84-2.88-4.17c-1.11-1.01-2.64-1.66-4.59-1.94
			c-1.95-0.29-4.1-0.05-6.46,0.72c-0.58,0.19-1.32,0.46-2.22,0.83c0.27,1.14,0.51,2.01,0.7,2.61l2.11,5.94l0.77,2.48
			C309.93,454.61,310.67,456.72,311.59,459.28z"/>
	</g>
	<g>
		<path class="st1" d="M111.45,446.27l0.2-1.03c0.39-0.02,0.7-0.01,0.93,0.01l3.15,0.43c2.63,0.27,5.56,0.65,8.79,1.13
			c1.29,0.21,3.32,0.58,6.08,1.11c3.76,0.73,6.46,1.54,8.09,2.43c2.38,1.31,4.04,2.91,4.97,4.8c0.93,1.89,1.2,3.84,0.81,5.85
			c-0.64,3.27-3.5,5.57-8.6,6.89l-0.21,0.22c2.26,1.1,4.04,2.38,5.34,3.83c1.3,1.45,2.2,3.08,2.7,4.9c0.36,1.33,0.35,2.98-0.03,4.95
			c-0.64,3.29-2.71,5.94-6.2,7.93c-3.49,1.99-7.87,2.48-13.13,1.46l-4.94-0.96l-5.04-0.81c-4.43-0.82-7.02-1.3-7.77-1.44
			c-0.77-0.15-1.53-0.33-2.27-0.54l0.07-0.37c0.05-0.27,0.15-0.45,0.28-0.55c0.16-0.11,0.44-0.17,0.83-0.19
			c2.87-0.04,4.51-0.12,4.92-0.26c0.4-0.14,0.72-0.43,0.94-0.86c0.44-0.83,1.01-3.08,1.72-6.74c0.07-0.33,0.14-0.75,0.21-1.26
			c0.24-1.49,0.39-2.34,0.43-2.56l0.67-3.44c1.13-5.82,2.05-10.92,2.77-15.29l1.26-6.66l0.13-0.83c-1.83-0.63-3.45-1.12-4.88-1.47
			C112.73,446.73,112,446.51,111.45,446.27z M124.74,489.61c2.22,0.27,4.15,0.16,5.78-0.32c0.75-0.22,1.69-0.7,2.81-1.43
			c1.12-0.73,2.06-1.69,2.83-2.87c0.77-1.18,1.27-2.37,1.5-3.56c0.18-0.91,0.21-2.06,0.1-3.45c-0.11-1.4-0.5-2.68-1.18-3.86
			c-0.68-1.18-1.82-2.25-3.42-3.24c-1.6-0.99-3.44-1.68-5.52-2.09c-4.03-0.78-6.3-1.14-6.82-1.08c-0.12,0.5-0.21,0.88-0.25,1.12
			l-0.21,1.23l-0.52,2.48l-0.55,2.82c-0.94,5.21-1.42,8.3-1.43,9.29c-0.01,0.98,0.44,1.92,1.33,2.8S121.96,489.05,124.74,489.61z
			 M121.32,465.56c1.06,0.44,2.2,0.77,3.42,1.01c4.78,0.93,8.23,0.51,10.34-1.26c2.11-1.77,3.37-3.69,3.78-5.77
			c0.18-0.93,0.21-1.9,0.1-2.92c-0.11-1.02-0.48-1.99-1.09-2.91c-0.61-0.92-1.45-1.68-2.51-2.28c-1.8-1.02-3.71-1.72-5.72-2.11
			c-1.88-0.37-3.67-0.5-5.37-0.39c-0.11,0.46-0.19,0.8-0.23,1.02c-0.04,0.22-0.15,0.86-0.3,1.9c-0.11,0.67-0.23,1.33-0.35,1.99
			l-0.88,3.99l-0.43,2.39l-0.68,4.72L121.32,465.56z"/>
	</g>
	<g>
		<path class="st1" d="M149.86,495.71c0.33-0.16,0.61-0.23,0.86-0.21l0.78,0.05c0.16,0.01,0.43,0.02,0.81,0.02
			c1.74-0.04,2.77-0.12,3.1-0.26c0.81-0.37,1.54-1.07,2.18-2.08c1.33-2.21,2.87-5.36,4.62-9.46c0.84-1.95,1.36-3.13,1.57-3.55
			c0.66-1.31,1.29-2.68,1.91-4.13l3.79-8.64c0.59-1.36,2.01-4.46,4.24-9.32c0.56-1.22,1.25-2.87,2.07-4.93l0.99,0l1.18,0.11
			c0.83,1.98,1.54,4.09,2.13,6.34c0.32,1.2,0.86,2.98,1.62,5.36l4.14,14.2l2.2,7.7c1.14,4.37,1.9,7.05,2.28,8.06
			c0.38,1.01,0.75,1.68,1.11,2.02c0.11,0.1,0.52,0.26,1.23,0.49s1.22,0.4,1.5,0.51c1.01,0.37,1.72,0.66,2.1,0.89
			c0.07,0.25,0.1,0.45,0.09,0.58c-0.01,0.11-0.05,0.28-0.14,0.5c-0.72-0.03-1.23-0.05-1.52-0.07c-1.15-0.08-3.16-0.26-6.06-0.53
			l-3.36-0.31l-4.08-0.23c-0.27-0.02-0.54-0.05-0.82-0.1c-0.28-0.05-0.52-0.07-0.72-0.09l-0.74-0.05c-0.25-0.04-0.47-0.12-0.66-0.25
			c0.02-0.31,0.1-0.61,0.23-0.9c0.28-0.12,0.53-0.18,0.76-0.18l3.55,0.01c0.92,0.02,1.63-0.05,2.11-0.22c0.16-0.4,0.25-0.7,0.27-0.9
			c0.03-0.4-0.19-1.47-0.66-3.2c-0.33-1.15-0.6-2.25-0.84-3.28c-0.23-1.03-1.19-4.45-2.88-10.24c-0.91-0.22-1.71-0.36-2.41-0.41
			l-7.21-0.44l-2.12-0.18c-0.76-0.05-1.61-0.06-2.54-0.01c-0.34,0.65-0.56,1.12-0.67,1.41l-3.62,9.06c-1.5,3.44-2.27,5.34-2.29,5.69
			c-0.01,0.2,0.06,0.55,0.23,1.03c0.46,0.17,1.08,0.34,1.86,0.5l4.55,0.73c0.23,0.22,0.34,0.41,0.33,0.56
			c-0.01,0.11-0.05,0.28-0.14,0.5c-1.01-0.05-1.79-0.09-2.33-0.13c-1.8-0.13-3.88-0.33-6.25-0.61c-1.1-0.12-1.88-0.2-2.35-0.23
			c-0.47-0.03-1.29-0.07-2.46-0.11c-0.77-0.01-1.32-0.02-1.66-0.05c-0.54-0.04-1.23-0.12-2.08-0.25l0.01-0.2
			C149.7,496.18,149.76,495.97,149.86,495.71z M167.35,476.62c2.39,0.3,5.13,0.56,8.21,0.78c1.75,0.12,3.29,0.18,4.63,0.15
			c-0.16-0.89-0.36-1.73-0.6-2.51c-1.18-4.01-1.84-6.22-1.97-6.64l-2.52-7.99l-0.29-0.63c-0.15,0.26-0.73,1.38-1.73,3.36
			c-1.68,3.4-2.91,6.06-3.68,7.97c-0.35,0.86-0.72,1.7-1.09,2.54c-0.38,0.84-0.62,1.44-0.72,1.78c-0.1,0.34-0.25,0.69-0.43,1.04
			L167.35,476.62z"/>
	</g>
	<g>
		<path class="st1" d="M253.94,495.96c0.18-0.24,0.34-0.4,0.49-0.47c0.35-0.19,0.97-0.41,1.86-0.67c2.11-0.59,3.39-1.07,3.84-1.44
			c0.21-0.5,0.24-1.16,0.07-1.95l-0.53-2.31l-1.75-8.41l-0.91-3.96l-1.73-8.31l-2.17-9.39c-0.5-2.25-0.91-3.48-1.24-3.71
			c-0.48-0.34-1.71-0.33-3.69,0.02c-0.84,0.16-1.59,0.25-2.25,0.27c-0.32-0.09-0.5-0.26-0.56-0.5c-0.04-0.18-0.03-0.4,0.03-0.66
			c0.18-0.15,0.34-0.24,0.49-0.28c0.31-0.07,0.69-0.14,1.13-0.21c1.33-0.15,2.68-0.37,4.07-0.66l2.43-0.59l5.84-1.1
			c2.91-0.62,5.17-1.13,6.78-1.54c1.61-0.41,2.71-0.68,3.28-0.8c0.5-0.11,1.77-0.33,3.79-0.67l4.68-1.03l0.58-0.02l2.72-0.68
			l0.37,0.1c0.15,0.15,0.27,0.32,0.35,0.51c0.07,0.31,0.11,0.79,0.15,1.45c0.04,0.66,0.07,1.07,0.1,1.22
			c0.49,2.29,0.98,4.21,1.47,5.76c0.01,0.14-0.04,0.24-0.14,0.31c-0.24,0.05-0.46,0.06-0.67,0.04c-0.33-0.37-0.81-1.03-1.44-2
			c-0.63-0.97-1.5-2.06-2.61-3.28c-0.75-0.81-1.29-1.27-1.64-1.38c-0.34-0.11-1-0.06-1.97,0.14c-0.2,0.04-1.21,0.23-3.02,0.57
			c-0.49,0.08-0.97,0.17-1.43,0.27l-9.38,2.2l-0.83,0.18c-1.21,0.26-1.91,0.57-2.08,0.93c-0.26,0.61-0.12,2.2,0.43,4.78
			c0.06,0.27,0.67,2.9,1.85,7.89l0.98,4.59c0.26,0.02,0.53-0.01,0.81-0.07l0.56-0.12c0.37-0.08,0.93-0.18,1.66-0.32
			c1.16-0.2,1.93-0.34,2.33-0.42c0.27-0.06,0.49-0.12,0.69-0.18c2.36-0.59,5.41-1.29,9.15-2.08c1.12-0.44,1.76-0.82,1.9-1.13
			c0.25-0.47,0.27-1.55,0.08-3.26c-0.19-1.71-0.02-2.73,0.5-3.07c0.29-0.06,0.56-0.06,0.83,0c0.08,0.17,0.14,0.33,0.17,0.48
			c0.03,0.15,0.06,0.41,0.09,0.77c0.06,0.84,0.55,3.4,1.47,7.7c0.24,1.14,0.57,2.41,0.99,3.79c0.42,1.38,0.64,2.13,0.67,2.24
			c0.04,0.2,0.07,0.47,0.07,0.81c-0.16,0.13-0.29,0.2-0.4,0.22l-0.23,0.05c-0.48-0.54-1.03-1.43-1.63-2.66
			c-1.05-2.1-1.94-3.37-2.69-3.8c-0.75-0.43-1.82-0.49-3.23-0.19c-0.31,0.07-0.86,0.2-1.67,0.41c-0.81,0.21-2.02,0.48-3.62,0.82
			l-2.15,0.46c-3.06,0.65-5.05,1.14-5.97,1.48l0.2,1.1l1.33,6.08l0.78,3.84l0.83,3.73c0.5,2.25,0.92,3.51,1.26,3.81
			c0.48,0.4,1.34,0.47,2.6,0.21l2.01-0.46c0.18-0.04,0.87-0.17,2.08-0.39c1.21-0.22,2.69-0.52,4.45-0.89
			c4.25-0.9,7.04-1.69,8.37-2.35c1.33-0.66,2.35-1.56,3.07-2.68c0.72-1.12,1.44-3.36,2.18-6.73c0.23-1,0.55-1.54,0.97-1.63
			c0.2-0.04,0.44,0,0.72,0.12c-0.18,2.32-0.23,3.83-0.18,4.53c0.08,1.59,0.28,3.2,0.57,4.81c0.15,0.73,0.11,1.37-0.14,1.93
			l-0.73,0.15l-9.26,2.07l-4.17,0.85l-9.88,2.24l-4.03,0.86c-0.51,0.11-0.98,0.22-1.41,0.34c-3.93,1.02-6.83,1.73-8.7,2.12
			c-0.33,0.07-0.57,0.06-0.71-0.02c-0.15-0.08-0.24-0.23-0.29-0.44L253.94,495.96z"/>
	</g>
	<g>
		<path class="st1" d="M205.27,499.76c0.01-0.34,0.08-0.65,0.22-0.92c1.73-0.56,3.42-0.97,5.08-1.21c1.1-0.15,1.79-0.43,2.09-0.86
			c0.21-0.31,0.29-1.39,0.24-3.26l-0.23-8.92l-0.35-6.04l-0.38-7.9l-0.11-2.09c-0.23-4.75-0.4-7.7-0.53-8.87
			c-0.04-0.23-0.14-0.54-0.32-0.93c-0.6-0.24-1.1-0.39-1.5-0.46s-2.18-0.31-5.35-0.7c-0.04-0.24-0.06-0.42-0.06-0.54
			c-0.01-0.14-0.01-0.32,0.01-0.54c0.43-0.02,1.13-0.03,2.1-0.03l5.14-0.08l2.97-0.09l0.88-0.08c0.11-0.01,0.44,0,0.98,0.02
			c1.33-0.07,2.09-0.12,2.29-0.15l2.69-0.34c1.83-0.1,3.11-0.13,3.86-0.1c0,0.41-0.05,0.85-0.17,1.33c-0.24,0.06-1.41,0.18-3.5,0.37
			c-2.09,0.19-3.28,0.38-3.59,0.58c-0.5,0.32-0.71,1.23-0.63,2.74c0.02,0.36,0.04,1.09,0.05,2.2l0.11,2.02l0.36,6.24l0.11,2.12
			l0.65,11.16l0.4,9.52l0.14,2.09c0.04,0.67,0.17,1.09,0.4,1.23c0.56-0.01,2.22-0.07,4.96-0.19l2.29-0.12l5.82-0.51
			c1.53-0.13,2.61-0.34,3.25-0.63c0.64-0.29,1.69-1.11,3.15-2.45c0.88-0.86,1.56-1.73,2.03-2.61c0.1-0.19,0.28-0.47,0.53-0.84
			c0.4-0.61,0.91-1.8,1.54-3.6l1.11-0.06c-0.09,0.82-0.2,1.59-0.32,2.31c-0.49,3.2-0.8,5.87-0.93,8c-0.02,0.45-0.05,0.87-0.07,1.25
			l-12.63,0.29c-10.83,0.57-17.26,1.01-19.27,1.31c-0.63,0.08-1.29,0.14-1.99,0.17L205.27,499.76z"/>
	</g>
</g>
<g>
</g>
<g>
</g>
<g>
</g>
<g>
</g>
<g>
</g>
</svg>
