<?xml version="1.0" standalone="no"?>
<!DOCTYPE svg PUBLIC "-//W3C//DTD SVG 20010904//EN"
 "http://www.w3.org/TR/2001/REC-SVG-20010904/DTD/svg10.dtd">
<svg version="1.0" xmlns="http://www.w3.org/2000/svg"
 width="700.000000pt" height="700.000000pt" viewBox="0 0 700.000000 700.000000"
 preserveAspectRatio="xMidYMid meet">
<metadata>
Created by potrace 1.14, written by Peter Selinger 2001-2017
</metadata>
<g transform="translate(0.000000,700.000000) scale(0.100000,-0.100000)"
fill="#000000" stroke="none">
<path d="M2993 6928 l-22 -73 37 42 c35 39 42 42 112 52 86 12 210 22 210 18
0 -3 -265 -361 -312 -421 -36 -46 -35 -48 28 -42 33 4 120 9 194 12 74 3 149
7 165 9 17 1 36 3 43 4 9 1 12 19 11 66 -2 66 -11 77 -24 28 -16 -65 -51 -82
-189 -89 -55 -3 -113 -7 -128 -9 -15 -2 -29 -1 -32 2 -4 5 275 383 316 427 10
11 18 24 18 29 0 8 -107 4 -245 -9 -103 -10 -135 -8 -148 10 -11 15 -15 8 -34
-56z"/>
<path d="M3550 6991 c0 -4 18 -11 39 -15 l39 -6 -3 -97 c-8 -222 -16 -317 -28
-325 -7 -4 -27 -8 -46 -8 -53 0 -27 -14 32 -16 29 -1 122 -5 207 -9 176 -8
190 -8 207 -6 12 1 39 108 30 117 -3 3 -15 -11 -27 -31 -37 -60 -55 -67 -177
-64 -149 3 -146 0 -140 116 3 64 9 98 18 103 7 5 16 7 19 5 4 -2 40 -5 80 -6
78 -2 110 -19 110 -58 0 -11 5 -23 10 -26 6 -4 10 12 10 42 1 26 3 65 6 86 7
43 -12 52 -22 10 -9 -37 -15 -39 -76 -37 -29 1 -75 3 -101 3 l-49 1 5 90 c3
49 8 94 12 100 6 10 192 6 226 -5 9 -3 24 -23 34 -45 10 -22 20 -38 22 -36 3
2 6 25 9 50 3 42 1 46 -19 47 -12 1 -35 2 -52 4 -16 2 -90 6 -163 9 -73 4
-150 8 -172 11 -22 3 -40 1 -40 -4z"/>
<path d="M4153 6963 c4 -6 20 -13 37 -16 25 -6 30 -11 30 -35 0 -23 -41 -262
-64 -372 -2 -10 -16 -15 -45 -15 -84 0 -42 -15 114 -40 17 -3 40 -7 53 -9 31
-7 28 -1 -14 23 -35 21 -35 22 -29 68 15 113 25 143 49 143 38 0 53 -21 101
-142 26 -64 53 -119 61 -122 8 -3 36 -8 62 -12 26 -3 58 -12 72 -20 28 -15
212 -64 238 -64 10 1 0 10 -20 20 -20 11 -39 24 -42 28 -7 11 83 373 96 389 7
9 24 11 52 7 75 -12 28 9 -86 37 -120 31 -158 33 -91 6 23 -9 44 -20 47 -25 7
-12 -82 -373 -97 -390 -16 -20 -77 -8 -131 25 -39 24 -51 39 -85 115 -61 132
-61 133 -9 156 78 34 93 110 36 171 -20 21 -47 33 -95 45 -128 30 -250 45
-240 29z m244 -64 c34 -21 59 -75 49 -107 -16 -49 -57 -67 -145 -63 l-34 1 7
48 c20 150 21 153 58 147 18 -4 47 -15 65 -26z"/>
<path d="M2680 6928 c-69 -15 -141 -30 -160 -33 -20 -3 -46 -7 -58 -10 -14 -2
-25 2 -29 10 -11 30 -20 14 -31 -52 -12 -71 -9 -91 7 -52 20 47 52 73 102 83
13 3 66 14 118 26 51 11 95 19 97 17 3 -3 -222 -403 -267 -475 -17 -27 -8 -35
23 -23 14 5 42 12 64 15 34 6 101 17 169 30 11 2 43 7 70 11 28 5 53 9 58 11
4 1 21 2 38 3 l31 1 -6 63 c-7 61 -26 105 -26 59 0 -50 -26 -89 -71 -106 -42
-16 -260 -57 -267 -51 -3 3 22 53 59 115 18 30 205 352 216 372 8 16 -19 13
-137 -14z"/>
<path d="M2157 6810 c-122 -32 -147 -45 -70 -36 l52 5 10 -37 c5 -20 24 -91
41 -157 56 -212 56 -204 0 -232 -25 -12 -39 -22 -33 -23 28 -1 233 53 233 61
0 5 -16 7 -34 5 -20 -2 -39 1 -44 7 -14 17 -102 375 -97 389 3 7 22 20 43 30
54 24 22 20 -101 -12z"/>
<path d="M1750 6664 c-47 -19 -111 -45 -142 -57 -32 -12 -58 -25 -58 -28 0 -3
21 -5 46 -5 l46 1 73 -180 c41 -99 74 -185 75 -192 0 -6 -15 -21 -32 -33 -29
-18 -30 -20 -8 -14 14 3 51 17 82 30 32 13 63 24 71 24 7 0 22 6 33 14 17 13
14 14 -33 9 -35 -3 -53 -2 -53 6 0 6 -34 93 -75 193 -84 203 -84 196 -5 218
48 14 67 13 105 -6 42 -20 69 -73 61 -119 -8 -40 -55 -83 -99 -92 -26 -5 -28
-7 -12 -13 59 -21 166 53 179 124 10 52 -23 119 -68 140 -51 24 -92 19 -186
-20z"/>
<path d="M5245 6668 c-73 -87 -292 -311 -317 -324 -21 -11 -33 -12 -49 -4 -11
6 -25 10 -32 7 -6 -2 30 -20 81 -40 99 -40 144 -49 75 -15 -50 24 -50 25 34
116 l58 62 75 -28 75 -28 3 -103 3 -103 -25 6 c-13 3 -31 9 -40 12 -9 3 -16 2
-16 -2 0 -10 190 -88 197 -81 2 3 -9 15 -25 27 l-30 23 -2 181 c-3 347 -7 364
-65 294z m4 -138 l2 -100 -67 25 c-36 14 -68 25 -70 25 -2 0 -4 4 -4 9 0 9
123 141 132 141 2 0 5 -45 7 -100z"/>
<path d="M4725 5762 c-16 -2 -27 -24 -53 -100 -87 -255 -229 -488 -480 -784
-61 -72 -78 -87 -96 -82 -12 3 -30 6 -39 8 -10 1 -21 6 -27 12 -7 7 -27 103
-55 272 -11 67 -46 138 -92 188 l-48 51 -79 2 c-92 2 -140 -17 -199 -77 -29
-30 -39 -49 -43 -83 -2 -24 -7 -59 -9 -78 -4 -22 11 -95 41 -208 26 -97 42
-178 38 -183 -13 -12 -264 -113 -269 -108 -3 2 -11 33 -18 69 -12 59 -12 70 5
119 44 129 -14 236 -152 283 -47 16 -215 17 -292 2 -38 -7 -38 -7 -38 27 0 21
5 35 13 35 24 2 212 44 233 52 17 8 21 19 23 65 2 62 -2 66 -92 93 -109 32
-219 15 -375 -58 -46 -21 -89 -39 -97 -39 -8 0 -17 -5 -20 -10 -4 -6 -10 -8
-15 -5 -17 11 -44 -52 -55 -127 -3 -21 -7 -53 -9 -70 -3 -18 -6 -60 -7 -93 -1
-33 -5 -67 -10 -75 -4 -9 -45 -31 -92 -50 -70 -28 -83 -37 -81 -54 1 -12 5
-48 9 -81 4 -36 13 -63 22 -68 22 -13 123 -96 166 -136 100 -95 183 -238 210
-366 15 -66 17 -301 4 -322 -3 -4 -8 -26 -11 -48 -4 -22 -9 -48 -12 -57 -3 -9
-7 -25 -9 -35 -9 -42 -70 -252 -130 -443 -109 -353 -161 -545 -181 -674 -3
-21 -8 -48 -10 -60 -3 -11 -8 -76 -11 -143 -5 -101 -3 -123 8 -124 8 0 23 -2
34 -4 11 -2 56 -9 100 -15 44 -6 96 -14 115 -17 19 -3 42 -6 50 -8 11 -1 17
-21 22 -76 9 -102 35 -173 81 -225 36 -40 95 -82 98 -69 1 3 3 10 4 15 1 6 3
24 4 41 1 24 5 29 19 25 9 -3 35 -7 57 -11 22 -3 94 -15 160 -26 150 -26 161
-28 208 -35 l39 -7 -7 -43 c-6 -41 -5 -43 17 -38 26 5 81 10 188 19 98 8 199
29 253 53 l44 19 13 79 c6 44 14 87 15 96 2 9 23 131 46 270 l42 253 84 79
c187 175 274 340 309 581 10 66 19 182 19 225 l0 45 -146 59 c-80 33 -146 65
-146 70 0 6 -5 46 -12 88 -12 89 -8 259 9 338 45 211 135 376 355 654 376 476
476 678 549 1104 l6 33 -88 -3 c-48 -2 -96 -4 -107 -6z m116 -129 c4 -4 1 -31
-7 -60 -13 -43 -20 -53 -46 -62 -36 -13 -41 -9 -57 40 -11 36 -8 61 13 88 11
14 81 10 97 -6z m-2228 -535 c-53 -70 -77 -97 -81 -93 -2 2 -6 26 -8 53 l-3
48 51 3 c41 2 49 -1 41 -11z m1127 -93 c10 -9 28 -38 39 -65 18 -41 19 -53 9
-76 -11 -24 -16 -26 -55 -21 -73 8 -114 49 -126 126 -9 56 -1 64 61 58 30 -3
62 -13 72 -22z m-792 -75 c11 -1 -16 -23 -61 -48 -31 -18 -64 -47 -80 -70 -25
-39 -28 -41 -57 -31 -16 6 -30 14 -30 17 0 18 66 111 89 126 23 15 53 16 139
6z m214 -36 c21 -51 10 -192 -19 -266 -19 -46 -46 -50 -117 -14 -68 34 -86 54
-86 93 0 59 24 98 87 142 32 22 69 49 83 60 33 27 36 27 52 -15z m-517 -262
l37 -104 -28 -39 c-29 -42 -43 -56 -45 -42 0 4 -3 17 -6 28 -10 42 -15 280 -5
270 5 -5 26 -57 47 -113z m266 -24 c13 -25 -3 -92 -24 -96 -19 -4 -48 51 -41
75 2 7 6 19 8 27 6 20 45 16 57 -6z m225 -214 c24 -11 42 -30 55 -59 11 -24
37 -54 62 -72 32 -22 53 -50 82 -107 21 -42 36 -78 34 -80 -8 -8 -35 19 -66
65 -34 48 -92 99 -116 99 -22 0 -145 -97 -152 -120 -3 -11 -8 -63 -10 -116 -5
-112 -24 -147 -94 -179 -37 -16 -46 -17 -82 -5 -67 23 -119 108 -115 190 5 80
54 127 122 114 25 -5 34 -3 35 7 0 8 3 27 5 43 6 37 -16 61 -58 64 -45 4 -87
31 -126 81 -52 69 -53 69 148 77 74 3 136 6 137 8 11 11 109 4 139 -10z m375
-71 c1 -44 2 -66 9 -163 1 -19 2 -39 1 -44 -2 -14 -47 32 -99 98 -39 50 -44
62 -36 84 9 25 82 72 111 72 9 0 13 -15 14 -47z m-249 -266 c9 -7 19 -28 22
-47 3 -19 14 -42 24 -50 10 -8 46 -36 80 -62 65 -50 96 -95 82 -118 -11 -17
-139 -22 -192 -7 -21 5 -62 32 -91 58 -56 49 -77 96 -77 166 0 52 24 73 83 73
29 0 59 -6 69 -13z m-77 -421 c148 -7 317 -17 370 -21 22 -2 47 -4 56 -4 25
-1 7 -72 -36 -141 -18 -30 -56 -100 -85 -155 -58 -113 -84 -144 -143 -173 -60
-29 -274 -90 -382 -108 -11 -1 -47 -7 -80 -13 -33 -6 -87 -13 -120 -16 -74 -7
-135 -15 -157 -21 -9 -3 -26 4 -37 15 -16 16 -19 30 -16 83 2 35 9 88 15 118
6 30 14 69 17 85 2 17 11 62 20 100 8 39 17 93 19 120 8 88 21 113 62 124 20
5 51 11 67 13 38 4 273 1 430 -6z m610 -283 c-51 -201 -113 -290 -278 -397
-90 -59 -337 -183 -417 -209 -48 -16 -93 -22 -235 -34 -150 -12 -258 -6 -360
20 -48 12 -50 13 -49 47 3 90 2 86 37 86 179 2 499 27 602 48 11 2 39 7 63 11
29 5 70 27 130 69 48 34 121 83 163 109 46 29 81 58 88 75 25 54 120 188 182
255 62 68 62 68 82 49 19 -20 19 -21 -8 -129z m224 -15 c8 -98 6 -115 -15
-164 -102 -237 -438 -536 -699 -622 -56 -19 -93 -24 -280 -37 -145 -11 -200
-16 -219 -20 -12 -2 -39 -7 -61 -10 -22 -4 -62 -10 -89 -14 -75 -13 -197 -6
-232 12 -47 24 -59 45 -55 99 1 21 66 35 146 32 135 -6 223 -6 275 0 30 4 96
11 145 17 506 58 781 241 920 612 21 55 64 103 110 123 46 20 51 17 54 -28z
m63 -240 c-17 -29 -35 -78 -42 -108 -19 -86 -20 -89 -53 -120 -31 -29 -32 -29
-50 -10 -17 19 -17 22 18 102 20 46 62 126 93 178 l57 95 3 -42 c2 -31 -4 -55
-26 -95z m-1377 -719 c110 -1 215 1 233 5 24 5 32 3 32 -8 0 -22 -22 -34 -75
-40 -27 -3 -68 -8 -90 -11 -22 -3 -78 -12 -125 -20 -136 -24 -156 -20 -238 50
-31 27 -28 32 21 29 23 -1 132 -4 242 -5z m81 -259 c29 -10 30 -11 24 -68 -3
-31 -14 -74 -25 -95 l-18 -39 -23 55 c-53 131 -40 176 42 147z"/>
<path d="M1060 1321 c0 -5 11 -16 25 -25 14 -9 25 -24 25 -32 0 -9 -39 -91
-86 -182 -131 -253 -155 -294 -169 -288 -26 9 -85 18 -85 12 0 -3 36 -24 81
-46 44 -22 93 -49 109 -60 39 -28 46 -10 10 25 l-30 28 92 176 c50 97 105 202
121 234 33 62 41 66 102 51 46 -10 21 10 -65 53 -110 55 -130 63 -130 54z"/>
<path d="M5822 1219 c-54 -16 -124 -59 -170 -103 -99 -95 -123 -228 -63 -351
54 -110 151 -172 266 -173 255 0 435 251 331 460 -57 114 -140 169 -260 174
-39 2 -86 -1 -104 -7z m151 -52 c134 -79 216 -291 157 -406 -41 -82 -146 -143
-230 -135 -157 15 -292 199 -273 371 17 155 210 249 346 170z"/>
<path d="M1453 1105 c38 -33 38 -33 15 -41 -13 -4 -25 -9 -28 -9 -3 -1 -23 -6
-45 -13 -22 -6 -60 -14 -85 -17 -24 -4 -47 -8 -50 -10 -10 -6 -97 -19 -158
-23 -22 -2 -22 -2 -6 -39 38 -87 132 -320 139 -341 6 -21 5 -22 -12 -14 -29
15 -73 23 -73 13 0 -4 28 -22 63 -38 34 -17 89 -47 122 -66 32 -20 61 -34 64
-32 2 3 -7 18 -21 33 -14 15 -33 41 -42 57 -19 35 -167 407 -164 411 2 1 75
17 162 34 154 31 227 35 279 15 10 -4 17 -3 17 4 0 6 -25 22 -55 36 -30 13
-73 36 -95 50 -56 36 -72 30 -27 -10z"/>
<path d="M1801 701 c-213 -271 -225 -282 -278 -271 -33 8 -54 6 -42 -3 2 -2
49 -19 104 -37 55 -18 106 -35 113 -37 6 -3 12 -1 12 3 0 5 -21 17 -46 28 -25
10 -43 24 -41 30 5 13 112 163 133 187 14 15 22 14 101 -12 48 -16 91 -35 95
-42 4 -6 8 -65 8 -131 l0 -118 -27 7 c-16 3 -38 9 -50 12 -13 3 -23 1 -23 -4
0 -6 54 -28 120 -51 66 -23 120 -38 120 -35 0 4 -16 21 -35 39 l-35 32 -1 108
c0 104 -4 202 -13 379 -3 44 -5 92 -5 106 -2 65 -29 40 -210 -190z m146 62 c9
-135 8 -180 -2 -178 -44 14 -151 48 -157 52 -4 2 16 34 44 71 71 93 102 129
107 126 2 -2 5 -34 8 -71z"/>
<path d="M5145 870 c-106 -28 -257 -84 -256 -95 1 -5 22 -10 48 -10 l47 0 72
-220 c97 -300 94 -279 44 -305 -70 -36 -37 -34 87 5 136 43 156 55 91 55 -25
0 -50 6 -55 13 -6 6 -26 61 -46 120 l-36 108 27 10 c15 5 33 12 40 14 14 5 92
-62 249 -214 13 -12 25 -11 89 9 99 31 108 45 29 40 -38 -1 -95 36 -200 134
l-80 74 21 24 c49 53 62 107 39 161 -16 38 -67 87 -93 88 -9 0 -24 2 -32 4 -9
1 -47 -6 -85 -15z m82 -56 c56 -36 74 -116 39 -169 -15 -23 -122 -84 -130 -74
-7 9 -76 219 -76 232 0 33 122 41 167 11z"/>
<path d="M2336 761 c-3 -5 15 -14 39 -21 25 -7 48 -16 50 -20 3 -4 0 -32 -5
-61 -6 -30 -13 -70 -16 -89 -3 -19 -11 -69 -19 -110 -8 -41 -17 -88 -20 -105
-27 -156 -32 -165 -110 -165 -62 0 -5 -19 140 -45 182 -33 226 -34 286 -8 130
58 143 212 25 288 l-28 19 47 23 c53 27 79 73 70 124 -16 89 -95 128 -320 159
-44 5 -92 13 -107 15 -15 3 -29 1 -32 -4z m328 -80 c61 -38 71 -94 29 -159
-33 -50 -74 -67 -141 -57 -80 11 -81 12 -75 53 10 76 36 187 45 193 16 10 108
-9 142 -30z m-52 -263 c148 -64 100 -272 -63 -271 -59 0 -108 20 -119 47 -7
19 -3 57 13 146 3 14 8 45 12 69 l7 43 51 -6 c28 -4 73 -17 99 -28z"/>
<path d="M4620 726 c-30 -7 -100 -23 -155 -34 -55 -12 -135 -29 -177 -38 -83
-17 -109 -40 -34 -29 45 7 51 3 62 -50 1 -5 4 -21 7 -35 3 -14 17 -77 32 -140
14 -63 28 -126 30 -140 3 -14 7 -36 10 -50 26 -119 26 -119 -29 -137 -46 -15
-45 -33 1 -22 21 5 46 12 56 14 10 2 26 6 35 9 9 3 31 8 47 11 17 3 107 22
200 43 l170 39 -1 34 c-1 19 -2 56 -3 83 -1 61 -13 52 -35 -27 -13 -45 -24
-62 -48 -77 -27 -16 -112 -41 -188 -54 -14 -3 -39 -8 -56 -11 -20 -5 -34 -2
-40 7 -6 7 -21 63 -33 123 -13 61 -25 115 -26 122 -5 14 128 46 195 47 42 1
45 -1 69 -43 30 -55 37 -42 17 36 -9 32 -18 76 -22 98 -3 22 -8 42 -10 45 -11
10 -21 -24 -17 -55 5 -38 0 -41 -150 -74 -64 -14 -89 -16 -92 -8 -9 27 -38
165 -42 199 -5 36 -4 37 39 49 23 6 82 19 131 29 87 17 88 17 111 -5 13 -12
31 -34 41 -49 10 -14 20 -25 22 -22 2 2 -1 31 -8 65 -15 69 -14 69 -109 47z"/>
<path d="M3243 652 c-7 -5 -63 -120 -124 -258 -112 -249 -154 -328 -177 -330
-7 -1 -26 -2 -44 -3 -44 -1 -28 -13 24 -17 24 -2 77 -6 118 -9 79 -6 90 8 16
19 -22 4 -41 8 -43 10 -7 6 85 229 97 236 7 5 18 7 24 5 6 -2 44 -6 85 -9 41
-3 78 -9 82 -13 11 -12 68 -231 61 -237 -3 -3 -25 -6 -49 -6 -43 0 -63 -19
-20 -21 12 0 33 -2 47 -3 87 -11 180 -15 180 -8 0 4 -15 14 -34 20 -42 15 -40
9 -138 351 -40 139 -77 260 -83 267 -6 8 -15 10 -22 6z m15 -210 c18 -59 32
-112 32 -119 0 -10 -75 -10 -135 2 -11 2 -26 4 -32 4 -8 1 0 29 23 79 20 42
42 92 50 110 8 17 18 32 23 32 4 0 22 -48 39 -108z"/>
<path d="M3733 613 c-110 -4 -135 -16 -53 -27 l50 -7 1 -42 c1 -23 3 -51 4
-62 4 -30 15 -280 16 -359 2 -75 -2 -80 -62 -90 -22 -3 -39 -10 -39 -15 0 -9
54 -7 145 4 22 2 114 7 205 11 91 3 166 7 167 8 1 1 4 26 8 56 3 30 9 65 12
78 8 32 -13 27 -27 -8 -15 -35 -46 -72 -80 -93 -36 -23 -239 -36 -241 -16 -1
8 -2 39 -4 69 -3 78 -15 281 -21 376 -7 97 -6 98 84 103 12 0 22 6 22 11 0 6
-19 9 -42 8 -24 -1 -89 -4 -145 -5z"/>
</g>
</svg>
